%TF.GenerationSoftware,KiCad,Pcbnew,9.0.6*%
%TF.CreationDate,2026-03-17T21:12:42+05:30*%
%TF.ProjectId,STM32,53544d33-322e-46b6-9963-61645f706362,rev?*%
%TF.SameCoordinates,Original*%
%TF.FileFunction,Legend,Bot*%
%TF.FilePolarity,Positive*%
%FSLAX46Y46*%
G04 Gerber Fmt 4.6, Leading zero omitted, Abs format (unit mm)*
G04 Created by KiCad (PCBNEW 9.0.6) date 2026-03-17 21:12:42*
%MOMM*%
%LPD*%
G01*
G04 APERTURE LIST*
%ADD10C,0.150000*%
G04 APERTURE END LIST*
D10*
X174939411Y-99509875D02*
X175510839Y-99509875D01*
X175225125Y-99509875D02*
X175225125Y-98509875D01*
X175225125Y-98509875D02*
X175320363Y-98652732D01*
X175320363Y-98652732D02*
X175415601Y-98747970D01*
X175415601Y-98747970D02*
X175510839Y-98795589D01*
X173796554Y-98462256D02*
X174653696Y-99747970D01*
X173510839Y-98605113D02*
X173463220Y-98557494D01*
X173463220Y-98557494D02*
X173367982Y-98509875D01*
X173367982Y-98509875D02*
X173129887Y-98509875D01*
X173129887Y-98509875D02*
X173034649Y-98557494D01*
X173034649Y-98557494D02*
X172987030Y-98605113D01*
X172987030Y-98605113D02*
X172939411Y-98700351D01*
X172939411Y-98700351D02*
X172939411Y-98795589D01*
X172939411Y-98795589D02*
X172987030Y-98938446D01*
X172987030Y-98938446D02*
X173558458Y-99509875D01*
X173558458Y-99509875D02*
X172939411Y-99509875D01*
X172558458Y-98605113D02*
X172510839Y-98557494D01*
X172510839Y-98557494D02*
X172415601Y-98509875D01*
X172415601Y-98509875D02*
X172177506Y-98509875D01*
X172177506Y-98509875D02*
X172082268Y-98557494D01*
X172082268Y-98557494D02*
X172034649Y-98605113D01*
X172034649Y-98605113D02*
X171987030Y-98700351D01*
X171987030Y-98700351D02*
X171987030Y-98795589D01*
X171987030Y-98795589D02*
X172034649Y-98938446D01*
X172034649Y-98938446D02*
X172606077Y-99509875D01*
X172606077Y-99509875D02*
X171987030Y-99509875D01*
X175606077Y-100119819D02*
X175272744Y-101119819D01*
X175272744Y-101119819D02*
X174939411Y-100119819D01*
X174415601Y-100119819D02*
X174320363Y-100119819D01*
X174320363Y-100119819D02*
X174225125Y-100167438D01*
X174225125Y-100167438D02*
X174177506Y-100215057D01*
X174177506Y-100215057D02*
X174129887Y-100310295D01*
X174129887Y-100310295D02*
X174082268Y-100500771D01*
X174082268Y-100500771D02*
X174082268Y-100738866D01*
X174082268Y-100738866D02*
X174129887Y-100929342D01*
X174129887Y-100929342D02*
X174177506Y-101024580D01*
X174177506Y-101024580D02*
X174225125Y-101072200D01*
X174225125Y-101072200D02*
X174320363Y-101119819D01*
X174320363Y-101119819D02*
X174415601Y-101119819D01*
X174415601Y-101119819D02*
X174510839Y-101072200D01*
X174510839Y-101072200D02*
X174558458Y-101024580D01*
X174558458Y-101024580D02*
X174606077Y-100929342D01*
X174606077Y-100929342D02*
X174653696Y-100738866D01*
X174653696Y-100738866D02*
X174653696Y-100500771D01*
X174653696Y-100500771D02*
X174606077Y-100310295D01*
X174606077Y-100310295D02*
X174558458Y-100215057D01*
X174558458Y-100215057D02*
X174510839Y-100167438D01*
X174510839Y-100167438D02*
X174415601Y-100119819D01*
X173653696Y-101024580D02*
X173606077Y-101072200D01*
X173606077Y-101072200D02*
X173653696Y-101119819D01*
X173653696Y-101119819D02*
X173701315Y-101072200D01*
X173701315Y-101072200D02*
X173653696Y-101024580D01*
X173653696Y-101024580D02*
X173653696Y-101119819D01*
X172653697Y-101119819D02*
X173225125Y-101119819D01*
X172939411Y-101119819D02*
X172939411Y-100119819D01*
X172939411Y-100119819D02*
X173034649Y-100262676D01*
X173034649Y-100262676D02*
X173129887Y-100357914D01*
X173129887Y-100357914D02*
X173225125Y-100405533D01*
M02*
