M48
; DRILL file {KiCad 9.0.6} date 2026-03-17T21:12:54+0530
; FORMAT={-:-/ absolute / metric / decimal}
; #@! TF.CreationDate,2026-03-17T21:12:54+05:30
; #@! TF.GenerationSoftware,Kicad,Pcbnew,9.0.6
; #@! TF.FileFunction,Plated,1,2,PTH
FMAT,2
METRIC
; #@! TA.AperFunction,Plated,PTH,ViaDrill
T1C0.300
; #@! TA.AperFunction,Plated,PTH,ComponentDrill
T2C0.550
; #@! TA.AperFunction,Plated,PTH,ComponentDrill
T3C0.850
; #@! TA.AperFunction,Plated,PTH,ComponentDrill
T4C0.900
; #@! TA.AperFunction,Plated,PTH,ComponentDrill
T5C1.000
; #@! TA.AperFunction,Plated,PTH,ComponentDrill
T6C1.200
%
G90
G05
T1
X137.0Y-113.0
X137.0Y-113.75
X137.0Y-114.5
X137.75Y-113.0
X137.75Y-113.75
X137.75Y-114.5
X138.5Y-113.0
X138.5Y-113.75
X138.5Y-114.5
X139.0Y-85.5
X139.0Y-86.25
X139.0Y-87.0
X139.5Y-109.25
X139.5Y-110.0
X139.5Y-110.75
X139.75Y-85.5
X139.75Y-86.25
X139.75Y-87.0
X140.25Y-109.25
X140.25Y-110.0
X140.25Y-110.75
X140.5Y-85.5
X140.5Y-86.25
X140.5Y-87.0
X141.0Y-109.25
X141.0Y-110.0
X141.0Y-110.75
X141.75Y-114.25
X141.75Y-115.0
X141.75Y-115.75
X142.5Y-114.25
X142.5Y-115.0
X142.5Y-115.75
X143.25Y-114.25
X143.25Y-115.0
X143.25Y-115.75
X144.75Y-109.5
X144.75Y-110.25
X144.75Y-111.0
X145.0Y-91.75
X145.0Y-92.5
X145.0Y-93.25
X145.5Y-109.5
X145.5Y-110.25
X145.5Y-111.0
X145.75Y-91.75
X145.75Y-92.5
X145.75Y-93.25
X146.25Y-109.5
X146.25Y-110.25
X146.25Y-111.0
X146.5Y-91.75
X146.5Y-92.5
X146.5Y-93.25
X146.75Y-113.75
X146.75Y-114.5
X146.75Y-115.25
X147.5Y-113.75
X147.5Y-114.5
X147.5Y-115.25
X147.75Y-97.5
X148.25Y-113.75
X148.25Y-114.5
X148.25Y-115.25
X149.25Y-111.75
X150.0Y-93.75
X150.25Y-99.0
X152.75Y-113.5
X153.75Y-109.0
X153.75Y-109.75
X153.75Y-110.5
X154.25Y-87.75
X154.25Y-90.75
X154.5Y-109.0
X154.5Y-109.75
X154.5Y-110.5
X155.0Y-92.35
X155.25Y-109.0
X155.25Y-109.75
X155.25Y-110.5
X156.0Y-113.75
X156.25Y-116.25
X160.5Y-89.0
X160.5Y-89.75
X160.5Y-90.5
X160.5Y-93.75
X160.5Y-94.5
X160.5Y-95.25
X161.0Y-115.5
X161.25Y-89.0
X161.25Y-89.75
X161.25Y-90.5
X161.25Y-93.75
X161.25Y-94.5
X161.25Y-95.25
X162.0Y-89.0
X162.0Y-89.75
X162.0Y-90.5
X162.0Y-93.75
X162.0Y-94.5
X162.0Y-95.25
X163.21Y-89.46
X163.25Y-102.0
X163.25Y-102.75
X163.25Y-103.5
X163.309Y-99.175
X163.5Y-116.5
X163.5Y-117.25
X163.5Y-118.0
X164.0Y-102.0
X164.0Y-102.75
X164.0Y-103.5
X164.25Y-116.5
X164.25Y-117.25
X164.25Y-118.0
X164.75Y-92.25
X164.75Y-93.0
X164.75Y-93.75
X164.75Y-102.0
X164.75Y-102.75
X164.75Y-103.5
X165.0Y-116.5
X165.0Y-117.25
X165.0Y-118.0
X165.5Y-92.25
X165.5Y-93.0
X165.5Y-93.75
X166.25Y-92.25
X166.25Y-93.0
X166.25Y-93.75
X167.25Y-88.25
X167.25Y-89.0
X167.25Y-89.75
X168.0Y-88.25
X168.0Y-89.0
X168.0Y-89.75
X168.25Y-101.25
X168.38Y-99.12
X168.75Y-88.25
X168.75Y-89.0
X168.75Y-89.75
X168.75Y-116.25
X168.75Y-117.0
X168.75Y-117.75
X169.5Y-116.25
X169.5Y-117.0
X169.5Y-117.75
X170.25Y-90.5
X170.25Y-91.25
X170.25Y-92.0
X170.25Y-116.25
X170.25Y-117.0
X170.25Y-117.75
X171.0Y-90.5
X171.0Y-91.25
X171.0Y-92.0
X171.75Y-90.5
X171.75Y-91.25
X171.75Y-92.0
T4
X138.45Y-96.6
X138.45Y-100.6
X138.45Y-104.6
T5
X146.69Y-85.5
X149.23Y-85.5
X151.77Y-85.5
X151.88Y-118.25
X154.31Y-85.5
X154.42Y-118.25
X156.96Y-118.25
X158.13Y-85.5
X159.5Y-118.25
X160.67Y-85.5
X163.21Y-85.5
X165.75Y-85.5
T6
X134.2Y-94.6
X134.2Y-106.6
X140.2Y-94.6
X140.2Y-106.6
T2
G00X175.875Y-96.0
M15
G01X176.525Y-96.0
M16
G05
G00X175.875Y-103.75
M15
G01X176.525Y-103.75
M16
G05
T3
G00X172.125Y-96.15
M15
G01X172.675Y-96.15
M16
G05
G00X172.125Y-103.6
M15
G01X172.675Y-103.6
M16
G05
M30
