%TF.GenerationSoftware,KiCad,Pcbnew,9.0.6*%
%TF.CreationDate,2026-03-16T22:00:33+05:30*%
%TF.ProjectId,STM32,53544d33-322e-46b6-9963-61645f706362,rev?*%
%TF.SameCoordinates,Original*%
%TF.FileFunction,Paste,Bot*%
%TF.FilePolarity,Positive*%
%FSLAX46Y46*%
G04 Gerber Fmt 4.6, Leading zero omitted, Abs format (unit mm)*
G04 Created by KiCad (PCBNEW 9.0.6) date 2026-03-16 22:00:33*
%MOMM*%
%LPD*%
G01*
G04 APERTURE LIST*
%ADD10C,0.300000*%
G04 APERTURE END LIST*
D10*
G36*
X175150828Y-104643161D02*
G01*
X175106121Y-104732574D01*
X175069116Y-104769579D01*
X174979704Y-104814285D01*
X174836238Y-104814285D01*
X174746824Y-104769578D01*
X174717647Y-104740401D01*
X174665114Y-104582799D01*
X174665114Y-104257142D01*
X175150828Y-104257142D01*
X175150828Y-104643161D01*
G37*
G36*
X174365114Y-104571732D02*
G01*
X174320407Y-104661146D01*
X174283403Y-104698149D01*
X174193990Y-104742857D01*
X174121952Y-104742857D01*
X174032539Y-104698150D01*
X173995535Y-104661146D01*
X173950828Y-104571732D01*
X173950828Y-104257142D01*
X174365114Y-104257142D01*
X174365114Y-104571732D01*
G37*
G36*
X174436542Y-101643161D02*
G01*
X174391835Y-101732574D01*
X174354830Y-101769579D01*
X174265418Y-101814285D01*
X174121952Y-101814285D01*
X174032539Y-101769579D01*
X173995535Y-101732575D01*
X173950828Y-101643160D01*
X173950828Y-101257142D01*
X174436542Y-101257142D01*
X174436542Y-101643161D01*
G37*
G36*
X175617495Y-105280952D02*
G01*
X173484161Y-105280952D01*
X173484161Y-104107142D01*
X173650828Y-104107142D01*
X173650828Y-104607142D01*
X173653710Y-104636406D01*
X173655771Y-104641383D01*
X173656154Y-104646761D01*
X173666664Y-104674224D01*
X173738093Y-104817082D01*
X173746020Y-104829675D01*
X173747536Y-104833335D01*
X173750917Y-104837454D01*
X173753758Y-104841968D01*
X173756751Y-104844564D01*
X173766191Y-104856066D01*
X173837619Y-104927494D01*
X173849121Y-104936934D01*
X173851717Y-104939927D01*
X173856226Y-104942765D01*
X173860349Y-104946149D01*
X173864011Y-104947665D01*
X173876603Y-104955592D01*
X174019459Y-105027021D01*
X174046923Y-105037530D01*
X174052297Y-105037911D01*
X174057278Y-105039975D01*
X174086542Y-105042857D01*
X174229400Y-105042857D01*
X174258664Y-105039975D01*
X174263644Y-105037911D01*
X174269019Y-105037530D01*
X174296482Y-105027021D01*
X174439339Y-104955592D01*
X174451932Y-104947664D01*
X174455592Y-104946149D01*
X174459711Y-104942767D01*
X174464225Y-104939927D01*
X174466821Y-104936933D01*
X174478323Y-104927494D01*
X174479505Y-104926311D01*
X174480476Y-104927494D01*
X174551905Y-104998923D01*
X174563409Y-105008364D01*
X174566004Y-105011356D01*
X174570513Y-105014194D01*
X174574636Y-105017578D01*
X174578297Y-105019094D01*
X174590889Y-105027021D01*
X174733747Y-105098449D01*
X174761210Y-105108959D01*
X174766585Y-105109340D01*
X174771564Y-105111403D01*
X174800828Y-105114285D01*
X175015114Y-105114285D01*
X175044378Y-105111403D01*
X175049356Y-105109340D01*
X175054732Y-105108959D01*
X175082196Y-105098449D01*
X175225053Y-105027021D01*
X175237646Y-105019093D01*
X175241306Y-105017578D01*
X175245425Y-105014196D01*
X175249939Y-105011356D01*
X175252535Y-105008362D01*
X175264037Y-104998923D01*
X175335466Y-104927494D01*
X175344907Y-104915989D01*
X175347899Y-104913395D01*
X175350737Y-104908885D01*
X175354121Y-104904763D01*
X175355637Y-104901101D01*
X175363564Y-104888510D01*
X175434992Y-104745652D01*
X175445502Y-104718189D01*
X175445883Y-104712813D01*
X175447946Y-104707835D01*
X175450828Y-104678571D01*
X175450828Y-104107142D01*
X175447946Y-104077878D01*
X175425548Y-104023806D01*
X175384164Y-103982422D01*
X175330092Y-103960024D01*
X175300828Y-103957142D01*
X173800828Y-103957142D01*
X173771564Y-103960024D01*
X173717492Y-103982422D01*
X173676108Y-104023806D01*
X173653710Y-104077878D01*
X173650828Y-104107142D01*
X173484161Y-104107142D01*
X173484161Y-103035714D01*
X173650828Y-103035714D01*
X173650828Y-103178571D01*
X173652286Y-103193382D01*
X173652006Y-103197332D01*
X173653187Y-103202526D01*
X173653710Y-103207835D01*
X173655227Y-103211497D01*
X173658526Y-103226005D01*
X173729954Y-103440291D01*
X173741943Y-103467142D01*
X173745473Y-103471212D01*
X173747536Y-103476192D01*
X173766191Y-103498923D01*
X173837619Y-103570351D01*
X173860349Y-103589006D01*
X173914422Y-103611402D01*
X173972948Y-103611402D01*
X174027020Y-103589006D01*
X174068406Y-103547620D01*
X174090802Y-103493548D01*
X174090802Y-103435022D01*
X174068406Y-103380949D01*
X174049751Y-103358219D01*
X174003361Y-103311829D01*
X173950828Y-103154230D01*
X173950828Y-103060054D01*
X174003361Y-102902455D01*
X174103968Y-102801848D01*
X174210327Y-102748669D01*
X174462149Y-102685714D01*
X174639507Y-102685714D01*
X174891328Y-102748668D01*
X174997688Y-102801849D01*
X175098294Y-102902454D01*
X175150828Y-103060056D01*
X175150828Y-103154228D01*
X175098294Y-103311830D01*
X175051906Y-103358218D01*
X175033251Y-103380949D01*
X175010853Y-103435021D01*
X175010853Y-103493547D01*
X175033250Y-103547619D01*
X175074635Y-103589005D01*
X175128707Y-103611403D01*
X175187233Y-103611403D01*
X175241305Y-103589006D01*
X175264036Y-103570352D01*
X175335465Y-103498924D01*
X175354120Y-103476193D01*
X175356181Y-103471216D01*
X175359715Y-103467142D01*
X175371703Y-103440291D01*
X175443131Y-103226005D01*
X175446430Y-103211492D01*
X175447946Y-103207835D01*
X175448468Y-103202532D01*
X175449651Y-103197331D01*
X175449369Y-103193376D01*
X175450828Y-103178571D01*
X175450828Y-103035714D01*
X175449369Y-103020908D01*
X175449651Y-103016954D01*
X175448468Y-103011752D01*
X175447946Y-103006450D01*
X175446430Y-103002792D01*
X175443131Y-102988280D01*
X175371703Y-102773994D01*
X175359715Y-102747143D01*
X175356183Y-102743071D01*
X175354121Y-102738092D01*
X175335466Y-102715362D01*
X175192608Y-102572505D01*
X175181106Y-102563065D01*
X175178510Y-102560072D01*
X175173996Y-102557231D01*
X175169877Y-102553850D01*
X175166217Y-102552334D01*
X175153624Y-102544407D01*
X175010767Y-102472978D01*
X175008626Y-102472158D01*
X175007756Y-102471514D01*
X174995478Y-102467127D01*
X174983304Y-102462469D01*
X174982223Y-102462392D01*
X174980065Y-102461621D01*
X174694351Y-102390193D01*
X174689279Y-102389443D01*
X174687235Y-102388596D01*
X174676212Y-102387510D01*
X174665262Y-102385891D01*
X174663074Y-102386216D01*
X174657971Y-102385714D01*
X174443685Y-102385714D01*
X174438581Y-102386216D01*
X174436394Y-102385891D01*
X174425443Y-102387510D01*
X174414421Y-102388596D01*
X174412376Y-102389443D01*
X174407305Y-102390193D01*
X174121591Y-102461621D01*
X174119432Y-102462392D01*
X174118352Y-102462469D01*
X174106171Y-102467129D01*
X174093900Y-102471514D01*
X174093030Y-102472158D01*
X174090888Y-102472978D01*
X173948032Y-102544407D01*
X173935440Y-102552333D01*
X173931778Y-102553850D01*
X173927655Y-102557233D01*
X173923146Y-102560072D01*
X173920550Y-102563064D01*
X173909048Y-102572505D01*
X173766191Y-102715362D01*
X173747536Y-102738093D01*
X173745473Y-102743072D01*
X173741943Y-102747143D01*
X173729954Y-102773994D01*
X173658526Y-102988280D01*
X173655227Y-103002787D01*
X173653710Y-103006450D01*
X173653187Y-103011758D01*
X173652006Y-103016953D01*
X173652286Y-103020902D01*
X173650828Y-103035714D01*
X173484161Y-103035714D01*
X173484161Y-101107142D01*
X173650828Y-101107142D01*
X173650828Y-101678571D01*
X173653710Y-101707835D01*
X173655773Y-101712815D01*
X173656155Y-101718190D01*
X173666664Y-101745653D01*
X173738093Y-101888510D01*
X173746021Y-101901105D01*
X173747536Y-101904762D01*
X173750915Y-101908879D01*
X173753758Y-101913396D01*
X173756752Y-101915993D01*
X173766190Y-101927493D01*
X173837618Y-101998922D01*
X173849123Y-102008364D01*
X173851718Y-102011356D01*
X173856228Y-102014195D01*
X173860349Y-102017577D01*
X173864008Y-102019092D01*
X173876603Y-102027021D01*
X174019461Y-102098449D01*
X174046924Y-102108959D01*
X174052299Y-102109340D01*
X174057278Y-102111403D01*
X174086542Y-102114285D01*
X174300828Y-102114285D01*
X174330092Y-102111403D01*
X174335070Y-102109340D01*
X174340446Y-102108959D01*
X174367910Y-102098449D01*
X174510767Y-102027021D01*
X174523360Y-102019093D01*
X174527020Y-102017578D01*
X174531139Y-102014196D01*
X174535653Y-102011356D01*
X174538249Y-102008362D01*
X174549751Y-101998923D01*
X174621180Y-101927494D01*
X174630621Y-101915989D01*
X174633613Y-101913395D01*
X174636451Y-101908885D01*
X174639835Y-101904763D01*
X174641351Y-101901101D01*
X174649278Y-101888510D01*
X174720706Y-101745652D01*
X174731216Y-101718189D01*
X174731597Y-101712813D01*
X174733660Y-101707835D01*
X174736542Y-101678571D01*
X174736542Y-101257142D01*
X175300828Y-101257142D01*
X175330092Y-101254260D01*
X175384164Y-101231862D01*
X175425548Y-101190478D01*
X175447946Y-101136406D01*
X175447946Y-101077878D01*
X175425548Y-101023806D01*
X175384164Y-100982422D01*
X175330092Y-100960024D01*
X175300828Y-100957142D01*
X173800828Y-100957142D01*
X173771564Y-100960024D01*
X173717492Y-100982422D01*
X173676108Y-101023806D01*
X173653710Y-101077878D01*
X173650828Y-101107142D01*
X173484161Y-101107142D01*
X173484161Y-99821429D01*
X173650828Y-99821429D01*
X173650828Y-100178571D01*
X173653710Y-100207835D01*
X173655771Y-100212812D01*
X173656154Y-100218190D01*
X173666664Y-100245653D01*
X173738093Y-100388511D01*
X173746020Y-100401104D01*
X173747536Y-100404764D01*
X173750917Y-100408883D01*
X173753758Y-100413397D01*
X173756751Y-100415993D01*
X173766191Y-100427495D01*
X173837619Y-100498923D01*
X173849121Y-100508363D01*
X173851717Y-100511356D01*
X173856226Y-100514194D01*
X173860349Y-100517578D01*
X173864011Y-100519094D01*
X173876603Y-100527021D01*
X174019459Y-100598450D01*
X174046923Y-100608959D01*
X174052297Y-100609340D01*
X174057278Y-100611404D01*
X174086542Y-100614286D01*
X174229400Y-100614286D01*
X174244211Y-100612827D01*
X174248161Y-100613108D01*
X174253355Y-100611926D01*
X174258664Y-100611404D01*
X174262325Y-100609887D01*
X174276835Y-100606588D01*
X174491119Y-100535159D01*
X174517970Y-100523171D01*
X174522040Y-100519640D01*
X174527020Y-100517578D01*
X174549751Y-100498923D01*
X175150828Y-99897846D01*
X175150828Y-100464286D01*
X175153710Y-100493550D01*
X175176108Y-100547622D01*
X175217492Y-100589006D01*
X175271564Y-100611404D01*
X175330092Y-100611404D01*
X175384164Y-100589006D01*
X175425548Y-100547622D01*
X175447946Y-100493550D01*
X175450828Y-100464286D01*
X175450828Y-99535714D01*
X175447946Y-99506450D01*
X175428716Y-99460026D01*
X175425549Y-99452379D01*
X175384163Y-99410993D01*
X175352489Y-99397873D01*
X175330092Y-99388596D01*
X175271564Y-99388596D01*
X175255727Y-99395156D01*
X175217492Y-99410993D01*
X175194762Y-99429648D01*
X174362657Y-100261752D01*
X174205059Y-100314286D01*
X174121952Y-100314286D01*
X174032539Y-100269579D01*
X173995535Y-100232575D01*
X173950828Y-100143161D01*
X173950828Y-99856839D01*
X173995535Y-99767425D01*
X174049751Y-99713209D01*
X174068406Y-99690479D01*
X174090802Y-99636406D01*
X174090802Y-99577880D01*
X174068406Y-99523808D01*
X174027020Y-99482422D01*
X173972948Y-99460026D01*
X173914422Y-99460026D01*
X173860349Y-99482422D01*
X173837619Y-99501077D01*
X173766191Y-99572505D01*
X173756751Y-99584006D01*
X173753758Y-99586603D01*
X173750917Y-99591116D01*
X173747536Y-99595236D01*
X173746020Y-99598895D01*
X173738093Y-99611489D01*
X173666664Y-99754347D01*
X173656154Y-99781810D01*
X173655771Y-99787187D01*
X173653710Y-99792165D01*
X173650828Y-99821429D01*
X173484161Y-99821429D01*
X173484161Y-98107143D01*
X173650828Y-98107143D01*
X173650828Y-99035715D01*
X173652351Y-99051187D01*
X173652089Y-99055127D01*
X173653007Y-99057841D01*
X173653710Y-99064979D01*
X173663033Y-99087487D01*
X173670840Y-99110569D01*
X173674171Y-99114376D01*
X173676108Y-99119051D01*
X173693337Y-99136280D01*
X173709381Y-99154616D01*
X173713915Y-99156858D01*
X173717492Y-99160435D01*
X173740008Y-99169761D01*
X173761844Y-99180560D01*
X173766888Y-99180896D01*
X173771564Y-99182833D01*
X173795931Y-99182833D01*
X173820240Y-99184454D01*
X173825033Y-99182833D01*
X173830092Y-99182833D01*
X173852600Y-99173509D01*
X173875682Y-99165703D01*
X173881518Y-99161531D01*
X173884164Y-99160435D01*
X173886953Y-99157645D01*
X173899604Y-99148602D01*
X174250385Y-98841667D01*
X174309521Y-98959940D01*
X174317449Y-98972534D01*
X174318965Y-98976194D01*
X174322346Y-98980314D01*
X174325186Y-98984825D01*
X174328177Y-98987419D01*
X174337620Y-98998925D01*
X174409049Y-99070353D01*
X174420549Y-99079791D01*
X174423146Y-99082785D01*
X174427658Y-99085625D01*
X174431779Y-99089007D01*
X174435438Y-99090522D01*
X174448032Y-99098450D01*
X174590888Y-99169879D01*
X174618352Y-99180388D01*
X174623726Y-99180769D01*
X174628707Y-99182833D01*
X174657971Y-99185715D01*
X175015114Y-99185715D01*
X175044378Y-99182833D01*
X175049358Y-99180769D01*
X175054733Y-99180388D01*
X175082196Y-99169879D01*
X175225053Y-99098450D01*
X175237648Y-99090521D01*
X175241305Y-99089007D01*
X175245422Y-99085627D01*
X175249939Y-99082785D01*
X175252536Y-99079790D01*
X175264036Y-99070353D01*
X175335465Y-98998925D01*
X175344904Y-98987422D01*
X175347900Y-98984825D01*
X175350741Y-98980310D01*
X175354120Y-98976194D01*
X175355635Y-98972535D01*
X175363564Y-98959939D01*
X175434993Y-98817081D01*
X175445502Y-98789618D01*
X175445883Y-98784242D01*
X175447946Y-98779264D01*
X175450828Y-98750000D01*
X175450828Y-98321429D01*
X175447946Y-98292165D01*
X175445883Y-98287186D01*
X175445502Y-98281811D01*
X175434992Y-98254348D01*
X175363564Y-98111490D01*
X175355637Y-98098898D01*
X175354121Y-98095237D01*
X175350737Y-98091114D01*
X175347899Y-98086605D01*
X175344907Y-98084010D01*
X175335466Y-98072506D01*
X175264037Y-98001077D01*
X175241306Y-97982422D01*
X175187234Y-97960025D01*
X175128708Y-97960025D01*
X175074636Y-97982422D01*
X175033250Y-98023808D01*
X175010853Y-98077880D01*
X175010853Y-98136406D01*
X175033250Y-98190478D01*
X175051905Y-98213209D01*
X175106121Y-98267425D01*
X175150828Y-98356838D01*
X175150828Y-98714590D01*
X175106122Y-98804002D01*
X175069118Y-98841007D01*
X174979704Y-98885715D01*
X174693381Y-98885715D01*
X174603967Y-98841007D01*
X174566963Y-98804004D01*
X174522257Y-98714591D01*
X174522257Y-98535715D01*
X174520732Y-98520237D01*
X174520995Y-98516303D01*
X174520078Y-98513592D01*
X174519375Y-98506451D01*
X174510048Y-98483936D01*
X174502245Y-98460861D01*
X174498913Y-98457053D01*
X174496977Y-98452379D01*
X174479747Y-98435149D01*
X174463704Y-98416814D01*
X174459169Y-98414571D01*
X174455593Y-98410995D01*
X174433076Y-98401668D01*
X174411241Y-98390870D01*
X174406196Y-98390533D01*
X174401521Y-98388597D01*
X174377145Y-98388597D01*
X174352845Y-98386977D01*
X174348055Y-98388597D01*
X174342993Y-98388597D01*
X174320481Y-98397921D01*
X174297402Y-98405727D01*
X174291565Y-98409899D01*
X174288921Y-98410995D01*
X174286130Y-98413785D01*
X174273481Y-98422829D01*
X173950828Y-98705149D01*
X173950828Y-98107143D01*
X173947946Y-98077879D01*
X173925548Y-98023807D01*
X173884164Y-97982423D01*
X173830092Y-97960025D01*
X173771564Y-97960025D01*
X173717492Y-97982423D01*
X173676108Y-98023807D01*
X173653710Y-98077879D01*
X173650828Y-98107143D01*
X173484161Y-98107143D01*
X173484161Y-96558489D01*
X173652567Y-96558489D01*
X173653710Y-96561632D01*
X173653710Y-96564978D01*
X173663671Y-96589026D01*
X173672568Y-96613492D01*
X173674827Y-96615959D01*
X173676108Y-96619050D01*
X173694505Y-96637447D01*
X173712095Y-96656655D01*
X173716063Y-96659005D01*
X173717492Y-96660434D01*
X173720760Y-96661787D01*
X173737395Y-96671641D01*
X174517550Y-97035714D01*
X173737395Y-97399787D01*
X173720760Y-97409640D01*
X173717492Y-97410994D01*
X173716063Y-97412422D01*
X173712095Y-97414773D01*
X173694505Y-97433980D01*
X173676108Y-97452378D01*
X173674827Y-97455468D01*
X173672568Y-97457936D01*
X173663671Y-97482401D01*
X173653710Y-97506450D01*
X173653710Y-97509795D01*
X173652567Y-97512939D01*
X173653710Y-97538943D01*
X173653710Y-97564978D01*
X173654990Y-97568068D01*
X173655137Y-97571409D01*
X173666147Y-97595004D01*
X173676108Y-97619050D01*
X173678471Y-97621413D01*
X173679887Y-97624447D01*
X173699094Y-97642036D01*
X173717492Y-97660434D01*
X173720582Y-97661714D01*
X173723050Y-97663974D01*
X173747515Y-97672870D01*
X173771564Y-97682832D01*
X173776152Y-97683283D01*
X173778053Y-97683975D01*
X173781591Y-97683819D01*
X173800828Y-97685714D01*
X175300828Y-97685714D01*
X175330092Y-97682832D01*
X175384164Y-97660434D01*
X175425548Y-97619050D01*
X175447946Y-97564978D01*
X175447946Y-97506450D01*
X175425548Y-97452378D01*
X175384164Y-97410994D01*
X175330092Y-97388596D01*
X175300828Y-97385714D01*
X174476962Y-97385714D01*
X174935690Y-97171641D01*
X174946403Y-97165294D01*
X174950035Y-97163974D01*
X174952603Y-97161622D01*
X174960990Y-97156654D01*
X174976380Y-97139848D01*
X174993198Y-97124447D01*
X174996018Y-97118403D01*
X175000517Y-97113491D01*
X175008303Y-97092079D01*
X175017949Y-97071410D01*
X175018241Y-97064748D01*
X175020518Y-97058489D01*
X175019517Y-97035714D01*
X175020518Y-97012939D01*
X175018241Y-97006679D01*
X175017949Y-97000018D01*
X175008303Y-96979348D01*
X175000517Y-96957937D01*
X174996018Y-96953024D01*
X174993198Y-96946981D01*
X174976380Y-96931579D01*
X174960990Y-96914774D01*
X174952603Y-96909805D01*
X174950035Y-96907454D01*
X174946403Y-96906133D01*
X174935690Y-96899787D01*
X174476962Y-96685714D01*
X175300828Y-96685714D01*
X175330092Y-96682832D01*
X175384164Y-96660434D01*
X175425548Y-96619050D01*
X175447946Y-96564978D01*
X175447946Y-96506450D01*
X175425548Y-96452378D01*
X175384164Y-96410994D01*
X175330092Y-96388596D01*
X175300828Y-96385714D01*
X173800828Y-96385714D01*
X173781591Y-96387608D01*
X173778053Y-96387453D01*
X173776152Y-96388144D01*
X173771564Y-96388596D01*
X173747515Y-96398557D01*
X173723050Y-96407454D01*
X173720582Y-96409713D01*
X173717492Y-96410994D01*
X173699094Y-96429391D01*
X173679887Y-96446981D01*
X173678471Y-96450014D01*
X173676108Y-96452378D01*
X173666147Y-96476423D01*
X173655137Y-96500019D01*
X173654990Y-96503359D01*
X173653710Y-96506450D01*
X173653710Y-96532484D01*
X173652567Y-96558489D01*
X173484161Y-96558489D01*
X173484161Y-95178572D01*
X173650828Y-95178572D01*
X173650828Y-96035715D01*
X173653710Y-96064979D01*
X173676108Y-96119051D01*
X173717492Y-96160435D01*
X173771564Y-96182833D01*
X173830092Y-96182833D01*
X173884164Y-96160435D01*
X173925548Y-96119051D01*
X173947946Y-96064979D01*
X173950828Y-96035715D01*
X173950828Y-95757143D01*
X175300828Y-95757143D01*
X175330092Y-95754261D01*
X175384164Y-95731863D01*
X175425548Y-95690479D01*
X175447946Y-95636407D01*
X175447946Y-95577879D01*
X175425548Y-95523807D01*
X175384164Y-95482423D01*
X175330092Y-95460025D01*
X175300828Y-95457143D01*
X173950828Y-95457143D01*
X173950828Y-95178572D01*
X173947946Y-95149308D01*
X173925548Y-95095236D01*
X173884164Y-95053852D01*
X173830092Y-95031454D01*
X173771564Y-95031454D01*
X173717492Y-95053852D01*
X173676108Y-95095236D01*
X173653710Y-95149308D01*
X173650828Y-95178572D01*
X173484161Y-95178572D01*
X173484161Y-94178572D01*
X173650828Y-94178572D01*
X173650828Y-94535715D01*
X173652286Y-94550526D01*
X173652006Y-94554476D01*
X173653187Y-94559670D01*
X173653710Y-94564979D01*
X173655227Y-94568641D01*
X173658526Y-94583149D01*
X173729954Y-94797435D01*
X173741943Y-94824286D01*
X173780290Y-94868500D01*
X173832638Y-94894674D01*
X173891018Y-94898823D01*
X173946542Y-94880315D01*
X173990756Y-94841967D01*
X174016930Y-94789620D01*
X174021079Y-94731240D01*
X174014559Y-94702566D01*
X173950828Y-94511374D01*
X173950828Y-94213982D01*
X173995535Y-94124567D01*
X174032539Y-94087563D01*
X174121952Y-94042858D01*
X174193990Y-94042858D01*
X174283401Y-94087563D01*
X174320406Y-94124568D01*
X174373586Y-94230928D01*
X174441021Y-94500666D01*
X174441791Y-94502821D01*
X174441868Y-94503905D01*
X174446535Y-94516101D01*
X174450914Y-94528357D01*
X174451558Y-94529227D01*
X174452378Y-94531368D01*
X174523807Y-94674226D01*
X174531735Y-94686821D01*
X174533251Y-94690480D01*
X174536630Y-94694597D01*
X174539472Y-94699112D01*
X174542466Y-94701708D01*
X174551906Y-94713211D01*
X174623335Y-94784639D01*
X174634835Y-94794077D01*
X174637432Y-94797071D01*
X174641944Y-94799911D01*
X174646065Y-94803293D01*
X174649724Y-94804808D01*
X174662318Y-94812736D01*
X174805174Y-94884165D01*
X174832638Y-94894674D01*
X174838012Y-94895055D01*
X174842993Y-94897119D01*
X174872257Y-94900001D01*
X175015114Y-94900001D01*
X175044378Y-94897119D01*
X175049358Y-94895055D01*
X175054733Y-94894674D01*
X175082196Y-94884165D01*
X175225053Y-94812736D01*
X175237648Y-94804807D01*
X175241305Y-94803293D01*
X175245422Y-94799913D01*
X175249939Y-94797071D01*
X175252536Y-94794076D01*
X175264036Y-94784639D01*
X175335465Y-94713211D01*
X175344904Y-94701708D01*
X175347900Y-94699111D01*
X175350741Y-94694596D01*
X175354120Y-94690480D01*
X175355635Y-94686821D01*
X175363564Y-94674225D01*
X175434993Y-94531367D01*
X175445502Y-94503904D01*
X175445883Y-94498528D01*
X175447946Y-94493550D01*
X175450828Y-94464286D01*
X175450828Y-94107144D01*
X175449369Y-94092338D01*
X175449651Y-94088384D01*
X175448468Y-94083182D01*
X175447946Y-94077880D01*
X175446430Y-94074222D01*
X175443131Y-94059710D01*
X175371703Y-93845424D01*
X175359715Y-93818573D01*
X175321367Y-93774359D01*
X175269020Y-93748185D01*
X175210640Y-93744035D01*
X175155115Y-93762543D01*
X175110901Y-93800891D01*
X175084727Y-93853238D01*
X175080577Y-93911618D01*
X175087097Y-93940292D01*
X175150828Y-94131486D01*
X175150828Y-94428876D01*
X175106122Y-94518288D01*
X175069118Y-94555293D01*
X174979704Y-94600001D01*
X174907667Y-94600001D01*
X174818253Y-94555293D01*
X174781248Y-94518289D01*
X174728069Y-94411930D01*
X174660635Y-94142192D01*
X174659863Y-94140033D01*
X174659787Y-94138953D01*
X174655126Y-94126772D01*
X174650742Y-94114501D01*
X174650097Y-94113631D01*
X174649278Y-94111489D01*
X174577849Y-93968633D01*
X174569921Y-93956039D01*
X174568406Y-93952380D01*
X174565024Y-93948259D01*
X174562184Y-93943747D01*
X174559190Y-93941150D01*
X174549752Y-93929650D01*
X174478324Y-93858221D01*
X174466821Y-93848781D01*
X174464225Y-93845787D01*
X174459710Y-93842945D01*
X174455593Y-93839566D01*
X174451934Y-93838050D01*
X174439339Y-93830122D01*
X174296482Y-93758694D01*
X174269018Y-93748184D01*
X174263642Y-93747802D01*
X174258664Y-93745740D01*
X174229400Y-93742858D01*
X174086542Y-93742858D01*
X174057278Y-93745740D01*
X174052299Y-93747802D01*
X174046924Y-93748184D01*
X174019461Y-93758694D01*
X173876603Y-93830122D01*
X173864008Y-93838050D01*
X173860349Y-93839566D01*
X173856228Y-93842947D01*
X173851718Y-93845787D01*
X173849123Y-93848778D01*
X173837618Y-93858221D01*
X173766190Y-93929650D01*
X173756752Y-93941149D01*
X173753758Y-93943747D01*
X173750915Y-93948263D01*
X173747536Y-93952381D01*
X173746021Y-93956037D01*
X173738093Y-93968633D01*
X173666664Y-94111490D01*
X173656155Y-94138953D01*
X173655773Y-94144327D01*
X173653710Y-94149308D01*
X173650828Y-94178572D01*
X173484161Y-94178572D01*
X173484161Y-93576191D01*
X175617495Y-93576191D01*
X175617495Y-105280952D01*
G37*
G36*
X145570489Y-118286542D02*
G01*
X145184470Y-118286542D01*
X145095056Y-118241835D01*
X145058051Y-118204830D01*
X145013346Y-118115418D01*
X145013346Y-117971951D01*
X145058051Y-117882540D01*
X145095056Y-117845535D01*
X145184470Y-117800828D01*
X145570489Y-117800828D01*
X145570489Y-118286542D01*
G37*
G36*
X140012376Y-118572257D02*
G01*
X139714317Y-118572257D01*
X139863346Y-118125169D01*
X140012376Y-118572257D01*
G37*
G36*
X144083804Y-118572257D02*
G01*
X143785745Y-118572257D01*
X143934774Y-118125169D01*
X144083804Y-118572257D01*
G37*
G36*
X147070489Y-118286542D02*
G01*
X146684470Y-118286542D01*
X146595056Y-118241835D01*
X146558051Y-118204830D01*
X146513346Y-118115418D01*
X146513346Y-117971951D01*
X146558051Y-117882540D01*
X146595056Y-117845535D01*
X146684470Y-117800828D01*
X147070489Y-117800828D01*
X147070489Y-118286542D01*
G37*
G36*
X147537156Y-119467495D02*
G01*
X137046679Y-119467495D01*
X137046679Y-118722257D01*
X137213346Y-118722257D01*
X137213346Y-118865114D01*
X137216228Y-118894378D01*
X137218291Y-118899358D01*
X137218673Y-118904733D01*
X137229182Y-118932196D01*
X137300611Y-119075053D01*
X137308538Y-119087646D01*
X137310054Y-119091306D01*
X137313435Y-119095425D01*
X137316276Y-119099939D01*
X137319269Y-119102535D01*
X137328709Y-119114037D01*
X137400138Y-119185466D01*
X137411642Y-119194907D01*
X137414237Y-119197899D01*
X137418746Y-119200737D01*
X137422869Y-119204121D01*
X137426530Y-119205637D01*
X137439122Y-119213564D01*
X137581980Y-119284992D01*
X137609443Y-119295502D01*
X137614818Y-119295883D01*
X137619797Y-119297946D01*
X137649061Y-119300828D01*
X138006204Y-119300828D01*
X138021009Y-119299369D01*
X138024964Y-119299651D01*
X138030165Y-119298468D01*
X138035468Y-119297946D01*
X138039125Y-119296430D01*
X138053638Y-119293131D01*
X138267923Y-119221703D01*
X138294774Y-119209714D01*
X138338988Y-119171367D01*
X138365162Y-119119020D01*
X138369311Y-119060640D01*
X138365810Y-119050138D01*
X138644800Y-119050138D01*
X138644800Y-119108664D01*
X138647026Y-119114037D01*
X138667197Y-119162735D01*
X138667198Y-119162736D01*
X138685853Y-119185467D01*
X138757282Y-119256895D01*
X138780011Y-119275548D01*
X138780012Y-119275549D01*
X138802810Y-119284992D01*
X138834083Y-119297946D01*
X138834084Y-119297946D01*
X138834085Y-119297946D01*
X138892610Y-119297946D01*
X138892611Y-119297946D01*
X138923884Y-119284992D01*
X138946682Y-119275549D01*
X138969413Y-119256894D01*
X139040841Y-119185466D01*
X139059496Y-119162736D01*
X139072199Y-119132067D01*
X139214524Y-119132067D01*
X139218673Y-119190448D01*
X139244847Y-119242795D01*
X139289061Y-119281142D01*
X139344585Y-119299650D01*
X139402966Y-119295501D01*
X139455313Y-119269327D01*
X139493660Y-119225113D01*
X139505648Y-119198262D01*
X139614317Y-118872257D01*
X140112376Y-118872257D01*
X140221044Y-119198262D01*
X140233032Y-119225113D01*
X140271379Y-119269328D01*
X140323727Y-119295501D01*
X140382107Y-119299651D01*
X140437631Y-119281142D01*
X140481845Y-119242795D01*
X140508019Y-119190448D01*
X140512169Y-119132068D01*
X140505649Y-119103394D01*
X140020343Y-117647480D01*
X140499097Y-117647480D01*
X140509231Y-117705123D01*
X140522511Y-117731359D01*
X140999060Y-118480221D01*
X140999060Y-119150828D01*
X141001942Y-119180092D01*
X141024340Y-119234164D01*
X141065724Y-119275548D01*
X141119796Y-119297946D01*
X141178324Y-119297946D01*
X141232396Y-119275548D01*
X141273780Y-119234164D01*
X141296178Y-119180092D01*
X141299060Y-119150828D01*
X141299060Y-118507971D01*
X141927632Y-118507971D01*
X141927632Y-119007971D01*
X141930514Y-119037235D01*
X141952912Y-119091307D01*
X141952915Y-119091310D01*
X141971565Y-119114036D01*
X142042993Y-119185465D01*
X142065724Y-119204120D01*
X142070700Y-119206181D01*
X142074775Y-119209715D01*
X142101626Y-119221703D01*
X142315912Y-119293131D01*
X142330424Y-119296430D01*
X142334082Y-119297946D01*
X142339384Y-119298468D01*
X142344586Y-119299651D01*
X142348540Y-119299369D01*
X142363346Y-119300828D01*
X142506203Y-119300828D01*
X142521008Y-119299369D01*
X142524963Y-119299651D01*
X142530164Y-119298468D01*
X142535467Y-119297946D01*
X142539124Y-119296430D01*
X142553637Y-119293131D01*
X142767923Y-119221703D01*
X142794774Y-119209715D01*
X142798845Y-119206183D01*
X142803825Y-119204121D01*
X142826555Y-119185466D01*
X142879954Y-119132067D01*
X143285952Y-119132067D01*
X143290101Y-119190448D01*
X143316275Y-119242795D01*
X143360489Y-119281142D01*
X143416013Y-119299650D01*
X143474394Y-119295501D01*
X143526741Y-119269327D01*
X143565088Y-119225113D01*
X143577076Y-119198262D01*
X143685745Y-118872257D01*
X144183804Y-118872257D01*
X144292472Y-119198262D01*
X144304460Y-119225113D01*
X144342807Y-119269328D01*
X144395155Y-119295501D01*
X144453535Y-119299651D01*
X144509059Y-119281142D01*
X144553273Y-119242795D01*
X144579447Y-119190448D01*
X144583597Y-119132068D01*
X144577077Y-119103394D01*
X144188126Y-117936542D01*
X144713346Y-117936542D01*
X144713346Y-118150828D01*
X144716228Y-118180092D01*
X144718290Y-118185070D01*
X144718672Y-118190446D01*
X144729182Y-118217910D01*
X144800610Y-118360767D01*
X144808537Y-118373360D01*
X144810053Y-118377020D01*
X144813434Y-118381139D01*
X144816275Y-118385653D01*
X144819268Y-118388249D01*
X144828708Y-118399751D01*
X144900137Y-118471180D01*
X144911641Y-118480621D01*
X144914236Y-118483613D01*
X144918745Y-118486451D01*
X144922868Y-118489835D01*
X144926529Y-118491351D01*
X144939121Y-118499278D01*
X145081979Y-118570706D01*
X145085413Y-118572020D01*
X144740461Y-119064809D01*
X144726040Y-119090435D01*
X144713381Y-119147577D01*
X144723552Y-119205213D01*
X144755005Y-119254570D01*
X144802953Y-119288134D01*
X144860095Y-119300793D01*
X144917731Y-119290622D01*
X144967088Y-119259169D01*
X144986231Y-119236847D01*
X145441444Y-118586542D01*
X145570489Y-118586542D01*
X145570489Y-119150828D01*
X145573371Y-119180092D01*
X145595769Y-119234164D01*
X145637153Y-119275548D01*
X145691225Y-119297946D01*
X145749753Y-119297946D01*
X145803825Y-119275548D01*
X145845209Y-119234164D01*
X145867607Y-119180092D01*
X145870489Y-119150828D01*
X145870489Y-117936542D01*
X146213346Y-117936542D01*
X146213346Y-118150828D01*
X146216228Y-118180092D01*
X146218290Y-118185070D01*
X146218672Y-118190446D01*
X146229182Y-118217910D01*
X146300610Y-118360767D01*
X146308537Y-118373360D01*
X146310053Y-118377020D01*
X146313434Y-118381139D01*
X146316275Y-118385653D01*
X146319268Y-118388249D01*
X146328708Y-118399751D01*
X146400137Y-118471180D01*
X146411641Y-118480621D01*
X146414236Y-118483613D01*
X146418745Y-118486451D01*
X146422868Y-118489835D01*
X146426529Y-118491351D01*
X146439121Y-118499278D01*
X146581979Y-118570706D01*
X146609442Y-118581216D01*
X146614817Y-118581597D01*
X146619796Y-118583660D01*
X146649060Y-118586542D01*
X147070489Y-118586542D01*
X147070489Y-119150828D01*
X147073371Y-119180092D01*
X147095769Y-119234164D01*
X147137153Y-119275548D01*
X147191225Y-119297946D01*
X147249753Y-119297946D01*
X147303825Y-119275548D01*
X147345209Y-119234164D01*
X147367607Y-119180092D01*
X147370489Y-119150828D01*
X147370489Y-117650828D01*
X147367607Y-117621564D01*
X147345209Y-117567492D01*
X147303825Y-117526108D01*
X147249753Y-117503710D01*
X147220489Y-117500828D01*
X146649060Y-117500828D01*
X146619796Y-117503710D01*
X146614815Y-117505773D01*
X146609441Y-117506155D01*
X146581977Y-117516664D01*
X146439121Y-117588093D01*
X146426527Y-117596020D01*
X146422868Y-117597536D01*
X146418747Y-117600917D01*
X146414235Y-117603758D01*
X146411638Y-117606751D01*
X146400138Y-117616190D01*
X146328709Y-117687618D01*
X146319269Y-117699120D01*
X146316275Y-117701717D01*
X146313433Y-117706231D01*
X146310054Y-117710349D01*
X146308538Y-117714007D01*
X146300610Y-117726603D01*
X146229182Y-117869460D01*
X146218672Y-117896924D01*
X146218290Y-117902299D01*
X146216228Y-117907278D01*
X146213346Y-117936542D01*
X145870489Y-117936542D01*
X145870489Y-117650828D01*
X145867607Y-117621564D01*
X145845209Y-117567492D01*
X145803825Y-117526108D01*
X145749753Y-117503710D01*
X145720489Y-117500828D01*
X145149060Y-117500828D01*
X145119796Y-117503710D01*
X145114815Y-117505773D01*
X145109441Y-117506155D01*
X145081977Y-117516664D01*
X144939121Y-117588093D01*
X144926527Y-117596020D01*
X144922868Y-117597536D01*
X144918747Y-117600917D01*
X144914235Y-117603758D01*
X144911638Y-117606751D01*
X144900138Y-117616190D01*
X144828709Y-117687618D01*
X144819269Y-117699120D01*
X144816275Y-117701717D01*
X144813433Y-117706231D01*
X144810054Y-117710349D01*
X144808538Y-117714007D01*
X144800610Y-117726603D01*
X144729182Y-117869460D01*
X144718672Y-117896924D01*
X144718290Y-117902299D01*
X144716228Y-117907278D01*
X144713346Y-117936542D01*
X144188126Y-117936542D01*
X144077076Y-117603394D01*
X144065088Y-117576543D01*
X144058065Y-117568446D01*
X144053273Y-117558861D01*
X144039064Y-117546537D01*
X144026741Y-117532329D01*
X144017155Y-117527536D01*
X144009059Y-117520514D01*
X143991215Y-117514565D01*
X143974394Y-117506155D01*
X143963705Y-117505395D01*
X143953535Y-117502005D01*
X143934769Y-117503338D01*
X143916013Y-117502006D01*
X143905845Y-117505395D01*
X143895155Y-117506155D01*
X143878331Y-117514566D01*
X143860489Y-117520514D01*
X143852394Y-117527534D01*
X143842807Y-117532328D01*
X143830481Y-117546539D01*
X143816275Y-117558861D01*
X143811482Y-117568445D01*
X143804460Y-117576543D01*
X143792472Y-117603394D01*
X143292472Y-119103394D01*
X143285952Y-119132067D01*
X142879954Y-119132067D01*
X142969412Y-119042608D01*
X142978850Y-119031106D01*
X142981845Y-119028510D01*
X142984685Y-119023996D01*
X142988067Y-119019877D01*
X142989582Y-119016217D01*
X142997510Y-119003624D01*
X143068939Y-118860768D01*
X143069758Y-118858625D01*
X143070403Y-118857756D01*
X143074787Y-118845484D01*
X143079448Y-118833304D01*
X143079524Y-118832223D01*
X143080296Y-118830065D01*
X143151724Y-118544351D01*
X143152473Y-118539279D01*
X143153321Y-118537235D01*
X143154406Y-118526212D01*
X143156026Y-118515262D01*
X143155700Y-118513074D01*
X143156203Y-118507971D01*
X143156203Y-118293685D01*
X143155700Y-118288581D01*
X143156026Y-118286394D01*
X143154406Y-118275443D01*
X143153321Y-118264421D01*
X143152473Y-118262376D01*
X143151724Y-118257305D01*
X143080296Y-117971591D01*
X143079524Y-117969432D01*
X143079448Y-117968352D01*
X143074787Y-117956171D01*
X143070403Y-117943900D01*
X143069758Y-117943030D01*
X143068939Y-117940888D01*
X142997510Y-117798032D01*
X142989583Y-117785440D01*
X142988067Y-117781778D01*
X142984683Y-117777655D01*
X142981845Y-117773146D01*
X142978852Y-117770550D01*
X142969412Y-117759048D01*
X142826555Y-117616191D01*
X142803824Y-117597536D01*
X142798844Y-117595473D01*
X142794774Y-117591943D01*
X142767923Y-117579954D01*
X142553637Y-117508526D01*
X142539129Y-117505227D01*
X142535467Y-117503710D01*
X142530158Y-117503187D01*
X142524964Y-117502006D01*
X142521014Y-117502286D01*
X142506203Y-117500828D01*
X142291918Y-117500828D01*
X142262654Y-117503710D01*
X142257676Y-117505771D01*
X142252299Y-117506154D01*
X142224836Y-117516664D01*
X142081978Y-117588093D01*
X142057092Y-117603758D01*
X142018746Y-117647973D01*
X142000238Y-117703495D01*
X142004386Y-117761876D01*
X142030561Y-117814225D01*
X142074776Y-117852571D01*
X142130298Y-117871079D01*
X142188679Y-117866931D01*
X142216142Y-117856421D01*
X142327328Y-117800828D01*
X142481863Y-117800828D01*
X142639461Y-117853361D01*
X142740068Y-117953968D01*
X142793247Y-118060327D01*
X142856203Y-118312148D01*
X142856203Y-118489507D01*
X142793247Y-118741328D01*
X142740068Y-118847688D01*
X142639462Y-118948294D01*
X142481860Y-119000828D01*
X142387689Y-119000828D01*
X142230086Y-118948294D01*
X142227632Y-118945839D01*
X142227632Y-118657971D01*
X142363346Y-118657971D01*
X142392610Y-118655089D01*
X142446682Y-118632691D01*
X142488066Y-118591307D01*
X142510464Y-118537235D01*
X142510464Y-118478707D01*
X142488066Y-118424635D01*
X142446682Y-118383251D01*
X142392610Y-118360853D01*
X142363346Y-118357971D01*
X142077632Y-118357971D01*
X142048368Y-118360853D01*
X141994296Y-118383251D01*
X141952912Y-118424635D01*
X141930514Y-118478707D01*
X141927632Y-118507971D01*
X141299060Y-118507971D01*
X141299060Y-118480221D01*
X141775609Y-117731360D01*
X141788889Y-117705123D01*
X141799022Y-117647480D01*
X141786326Y-117590348D01*
X141752733Y-117542422D01*
X141703355Y-117510999D01*
X141645712Y-117500866D01*
X141588579Y-117513562D01*
X141540653Y-117547155D01*
X141522511Y-117570297D01*
X141149060Y-118157147D01*
X140775609Y-117570297D01*
X140757467Y-117547155D01*
X140709540Y-117513562D01*
X140652408Y-117500865D01*
X140594765Y-117510999D01*
X140545387Y-117542421D01*
X140511794Y-117590348D01*
X140499097Y-117647480D01*
X140020343Y-117647480D01*
X140005648Y-117603394D01*
X139993660Y-117576543D01*
X139986637Y-117568446D01*
X139981845Y-117558861D01*
X139967636Y-117546537D01*
X139955313Y-117532329D01*
X139945727Y-117527536D01*
X139937631Y-117520514D01*
X139919787Y-117514565D01*
X139902966Y-117506155D01*
X139892277Y-117505395D01*
X139882107Y-117502005D01*
X139863341Y-117503338D01*
X139844585Y-117502006D01*
X139834417Y-117505395D01*
X139823727Y-117506155D01*
X139806903Y-117514566D01*
X139789061Y-117520514D01*
X139780966Y-117527534D01*
X139771379Y-117532328D01*
X139759053Y-117546539D01*
X139744847Y-117558861D01*
X139740054Y-117568445D01*
X139733032Y-117576543D01*
X139721044Y-117603394D01*
X139221044Y-119103394D01*
X139214524Y-119132067D01*
X139072199Y-119132067D01*
X139081892Y-119108663D01*
X139081892Y-119081215D01*
X139081893Y-119050138D01*
X139059496Y-118996065D01*
X139040842Y-118973335D01*
X138969414Y-118901906D01*
X138946683Y-118883251D01*
X138946682Y-118883250D01*
X138915008Y-118870130D01*
X138892611Y-118860853D01*
X138834083Y-118860853D01*
X138811686Y-118870130D01*
X138780012Y-118883250D01*
X138757281Y-118901905D01*
X138685852Y-118973334D01*
X138667197Y-118996065D01*
X138647027Y-119044762D01*
X138644800Y-119050138D01*
X138365810Y-119050138D01*
X138350803Y-119005115D01*
X138312456Y-118960901D01*
X138260109Y-118934727D01*
X138201729Y-118930578D01*
X138173055Y-118937097D01*
X137981861Y-119000828D01*
X137684471Y-119000828D01*
X137595057Y-118956121D01*
X137558053Y-118919117D01*
X137513346Y-118829703D01*
X137513346Y-118757667D01*
X137558053Y-118668253D01*
X137595058Y-118631248D01*
X137701417Y-118578069D01*
X137971155Y-118510635D01*
X137973313Y-118509863D01*
X137974394Y-118509787D01*
X137986568Y-118505128D01*
X137998846Y-118500742D01*
X137999716Y-118500097D01*
X138001857Y-118499278D01*
X138144714Y-118427849D01*
X138157309Y-118419920D01*
X138160966Y-118418406D01*
X138165083Y-118415026D01*
X138169600Y-118412184D01*
X138172197Y-118409189D01*
X138183697Y-118399752D01*
X138255126Y-118328324D01*
X138264568Y-118316818D01*
X138267560Y-118314224D01*
X138270399Y-118309713D01*
X138273781Y-118305593D01*
X138275296Y-118301933D01*
X138283225Y-118289339D01*
X138354653Y-118146481D01*
X138365163Y-118119018D01*
X138365544Y-118113642D01*
X138367607Y-118108664D01*
X138370489Y-118079400D01*
X138370489Y-117936542D01*
X138367607Y-117907278D01*
X138365544Y-117902299D01*
X138365163Y-117896924D01*
X138354653Y-117869461D01*
X138283225Y-117726603D01*
X138275296Y-117714008D01*
X138273781Y-117710349D01*
X138270399Y-117706228D01*
X138267560Y-117701718D01*
X138264568Y-117699123D01*
X138255126Y-117687618D01*
X138183697Y-117616190D01*
X138172197Y-117606752D01*
X138169600Y-117603758D01*
X138165083Y-117600915D01*
X138160966Y-117597536D01*
X138157309Y-117596021D01*
X138144714Y-117588093D01*
X138001857Y-117516664D01*
X137974394Y-117506155D01*
X137969019Y-117505773D01*
X137964039Y-117503710D01*
X137934775Y-117500828D01*
X137577632Y-117500828D01*
X137562820Y-117502286D01*
X137558871Y-117502006D01*
X137553676Y-117503187D01*
X137548368Y-117503710D01*
X137544706Y-117505226D01*
X137530197Y-117508526D01*
X137315912Y-117579955D01*
X137289061Y-117591943D01*
X137244846Y-117630291D01*
X137218673Y-117682638D01*
X137214524Y-117741018D01*
X137233032Y-117796542D01*
X137271380Y-117840757D01*
X137323727Y-117866930D01*
X137382107Y-117871079D01*
X137410780Y-117864559D01*
X137601975Y-117800828D01*
X137899365Y-117800828D01*
X137988779Y-117845535D01*
X138025783Y-117882539D01*
X138070489Y-117971951D01*
X138070489Y-118043990D01*
X138025783Y-118133402D01*
X137988779Y-118170406D01*
X137882418Y-118223587D01*
X137612681Y-118291021D01*
X137610522Y-118291792D01*
X137609442Y-118291869D01*
X137597261Y-118296529D01*
X137584990Y-118300914D01*
X137584120Y-118301558D01*
X137581978Y-118302378D01*
X137439122Y-118373807D01*
X137426528Y-118381734D01*
X137422869Y-118383250D01*
X137418749Y-118386631D01*
X137414236Y-118389472D01*
X137411639Y-118392466D01*
X137400138Y-118401905D01*
X137328709Y-118473334D01*
X137319269Y-118484835D01*
X137316276Y-118487432D01*
X137313435Y-118491945D01*
X137310054Y-118496065D01*
X137308538Y-118499724D01*
X137300611Y-118512318D01*
X137229182Y-118655175D01*
X137218673Y-118682638D01*
X137218291Y-118688012D01*
X137216228Y-118692993D01*
X137213346Y-118722257D01*
X137046679Y-118722257D01*
X137046679Y-117334161D01*
X147537156Y-117334161D01*
X147537156Y-119467495D01*
G37*
M02*
