%TF.GenerationSoftware,KiCad,Pcbnew,9.0.6*%
%TF.CreationDate,2026-03-17T21:12:42+05:30*%
%TF.ProjectId,STM32,53544d33-322e-46b6-9963-61645f706362,rev?*%
%TF.SameCoordinates,Original*%
%TF.FileFunction,Legend,Top*%
%TF.FilePolarity,Positive*%
%FSLAX46Y46*%
G04 Gerber Fmt 4.6, Leading zero omitted, Abs format (unit mm)*
G04 Created by KiCad (PCBNEW 9.0.6) date 2026-03-17 21:12:42*
%MOMM*%
%LPD*%
G01*
G04 APERTURE LIST*
%ADD10C,0.150000*%
%ADD11C,0.120000*%
G04 APERTURE END LIST*
D10*
X173927255Y-105569819D02*
X174117731Y-105569819D01*
X174117731Y-105569819D02*
X174212969Y-105617438D01*
X174212969Y-105617438D02*
X174308207Y-105712676D01*
X174308207Y-105712676D02*
X174355826Y-105903152D01*
X174355826Y-105903152D02*
X174355826Y-106236485D01*
X174355826Y-106236485D02*
X174308207Y-106426961D01*
X174308207Y-106426961D02*
X174212969Y-106522200D01*
X174212969Y-106522200D02*
X174117731Y-106569819D01*
X174117731Y-106569819D02*
X173927255Y-106569819D01*
X173927255Y-106569819D02*
X173832017Y-106522200D01*
X173832017Y-106522200D02*
X173736779Y-106426961D01*
X173736779Y-106426961D02*
X173689160Y-106236485D01*
X173689160Y-106236485D02*
X173689160Y-105903152D01*
X173689160Y-105903152D02*
X173736779Y-105712676D01*
X173736779Y-105712676D02*
X173832017Y-105617438D01*
X173832017Y-105617438D02*
X173927255Y-105569819D01*
X174784398Y-106569819D02*
X174784398Y-105569819D01*
X174784398Y-105569819D02*
X175355826Y-106569819D01*
X175355826Y-106569819D02*
X175355826Y-105569819D01*
X172736779Y-93019819D02*
X172736779Y-93829342D01*
X172736779Y-93829342D02*
X172784398Y-93924580D01*
X172784398Y-93924580D02*
X172832017Y-93972200D01*
X172832017Y-93972200D02*
X172927255Y-94019819D01*
X172927255Y-94019819D02*
X173117731Y-94019819D01*
X173117731Y-94019819D02*
X173212969Y-93972200D01*
X173212969Y-93972200D02*
X173260588Y-93924580D01*
X173260588Y-93924580D02*
X173308207Y-93829342D01*
X173308207Y-93829342D02*
X173308207Y-93019819D01*
X173736779Y-93972200D02*
X173879636Y-94019819D01*
X173879636Y-94019819D02*
X174117731Y-94019819D01*
X174117731Y-94019819D02*
X174212969Y-93972200D01*
X174212969Y-93972200D02*
X174260588Y-93924580D01*
X174260588Y-93924580D02*
X174308207Y-93829342D01*
X174308207Y-93829342D02*
X174308207Y-93734104D01*
X174308207Y-93734104D02*
X174260588Y-93638866D01*
X174260588Y-93638866D02*
X174212969Y-93591247D01*
X174212969Y-93591247D02*
X174117731Y-93543628D01*
X174117731Y-93543628D02*
X173927255Y-93496009D01*
X173927255Y-93496009D02*
X173832017Y-93448390D01*
X173832017Y-93448390D02*
X173784398Y-93400771D01*
X173784398Y-93400771D02*
X173736779Y-93305533D01*
X173736779Y-93305533D02*
X173736779Y-93210295D01*
X173736779Y-93210295D02*
X173784398Y-93115057D01*
X173784398Y-93115057D02*
X173832017Y-93067438D01*
X173832017Y-93067438D02*
X173927255Y-93019819D01*
X173927255Y-93019819D02*
X174165350Y-93019819D01*
X174165350Y-93019819D02*
X174308207Y-93067438D01*
X175070112Y-93496009D02*
X175212969Y-93543628D01*
X175212969Y-93543628D02*
X175260588Y-93591247D01*
X175260588Y-93591247D02*
X175308207Y-93686485D01*
X175308207Y-93686485D02*
X175308207Y-93829342D01*
X175308207Y-93829342D02*
X175260588Y-93924580D01*
X175260588Y-93924580D02*
X175212969Y-93972200D01*
X175212969Y-93972200D02*
X175117731Y-94019819D01*
X175117731Y-94019819D02*
X174736779Y-94019819D01*
X174736779Y-94019819D02*
X174736779Y-93019819D01*
X174736779Y-93019819D02*
X175070112Y-93019819D01*
X175070112Y-93019819D02*
X175165350Y-93067438D01*
X175165350Y-93067438D02*
X175212969Y-93115057D01*
X175212969Y-93115057D02*
X175260588Y-93210295D01*
X175260588Y-93210295D02*
X175260588Y-93305533D01*
X175260588Y-93305533D02*
X175212969Y-93400771D01*
X175212969Y-93400771D02*
X175165350Y-93448390D01*
X175165350Y-93448390D02*
X175070112Y-93496009D01*
X175070112Y-93496009D02*
X174736779Y-93496009D01*
X163839160Y-88822200D02*
X163982017Y-88869819D01*
X163982017Y-88869819D02*
X164220112Y-88869819D01*
X164220112Y-88869819D02*
X164315350Y-88822200D01*
X164315350Y-88822200D02*
X164362969Y-88774580D01*
X164362969Y-88774580D02*
X164410588Y-88679342D01*
X164410588Y-88679342D02*
X164410588Y-88584104D01*
X164410588Y-88584104D02*
X164362969Y-88488866D01*
X164362969Y-88488866D02*
X164315350Y-88441247D01*
X164315350Y-88441247D02*
X164220112Y-88393628D01*
X164220112Y-88393628D02*
X164029636Y-88346009D01*
X164029636Y-88346009D02*
X163934398Y-88298390D01*
X163934398Y-88298390D02*
X163886779Y-88250771D01*
X163886779Y-88250771D02*
X163839160Y-88155533D01*
X163839160Y-88155533D02*
X163839160Y-88060295D01*
X163839160Y-88060295D02*
X163886779Y-87965057D01*
X163886779Y-87965057D02*
X163934398Y-87917438D01*
X163934398Y-87917438D02*
X164029636Y-87869819D01*
X164029636Y-87869819D02*
X164267731Y-87869819D01*
X164267731Y-87869819D02*
X164410588Y-87917438D01*
X164743922Y-87869819D02*
X164982017Y-88869819D01*
X164982017Y-88869819D02*
X165172493Y-88155533D01*
X165172493Y-88155533D02*
X165362969Y-88869819D01*
X165362969Y-88869819D02*
X165601065Y-87869819D01*
X165982017Y-88869819D02*
X165982017Y-87869819D01*
X165982017Y-87869819D02*
X166220112Y-87869819D01*
X166220112Y-87869819D02*
X166362969Y-87917438D01*
X166362969Y-87917438D02*
X166458207Y-88012676D01*
X166458207Y-88012676D02*
X166505826Y-88107914D01*
X166505826Y-88107914D02*
X166553445Y-88298390D01*
X166553445Y-88298390D02*
X166553445Y-88441247D01*
X166553445Y-88441247D02*
X166505826Y-88631723D01*
X166505826Y-88631723D02*
X166458207Y-88726961D01*
X166458207Y-88726961D02*
X166362969Y-88822200D01*
X166362969Y-88822200D02*
X166220112Y-88869819D01*
X166220112Y-88869819D02*
X165982017Y-88869819D01*
X147486779Y-87869819D02*
X147486779Y-88679342D01*
X147486779Y-88679342D02*
X147534398Y-88774580D01*
X147534398Y-88774580D02*
X147582017Y-88822200D01*
X147582017Y-88822200D02*
X147677255Y-88869819D01*
X147677255Y-88869819D02*
X147867731Y-88869819D01*
X147867731Y-88869819D02*
X147962969Y-88822200D01*
X147962969Y-88822200D02*
X148010588Y-88774580D01*
X148010588Y-88774580D02*
X148058207Y-88679342D01*
X148058207Y-88679342D02*
X148058207Y-87869819D01*
X148486779Y-88584104D02*
X148962969Y-88584104D01*
X148391541Y-88869819D02*
X148724874Y-87869819D01*
X148724874Y-87869819D02*
X149058207Y-88869819D01*
X149962969Y-88869819D02*
X149629636Y-88393628D01*
X149391541Y-88869819D02*
X149391541Y-87869819D01*
X149391541Y-87869819D02*
X149772493Y-87869819D01*
X149772493Y-87869819D02*
X149867731Y-87917438D01*
X149867731Y-87917438D02*
X149915350Y-87965057D01*
X149915350Y-87965057D02*
X149962969Y-88060295D01*
X149962969Y-88060295D02*
X149962969Y-88203152D01*
X149962969Y-88203152D02*
X149915350Y-88298390D01*
X149915350Y-88298390D02*
X149867731Y-88346009D01*
X149867731Y-88346009D02*
X149772493Y-88393628D01*
X149772493Y-88393628D02*
X149391541Y-88393628D01*
X150248684Y-87869819D02*
X150820112Y-87869819D01*
X150534398Y-88869819D02*
X150534398Y-87869819D01*
X135170112Y-109846009D02*
X135312969Y-109893628D01*
X135312969Y-109893628D02*
X135360588Y-109941247D01*
X135360588Y-109941247D02*
X135408207Y-110036485D01*
X135408207Y-110036485D02*
X135408207Y-110179342D01*
X135408207Y-110179342D02*
X135360588Y-110274580D01*
X135360588Y-110274580D02*
X135312969Y-110322200D01*
X135312969Y-110322200D02*
X135217731Y-110369819D01*
X135217731Y-110369819D02*
X134836779Y-110369819D01*
X134836779Y-110369819D02*
X134836779Y-109369819D01*
X134836779Y-109369819D02*
X135170112Y-109369819D01*
X135170112Y-109369819D02*
X135265350Y-109417438D01*
X135265350Y-109417438D02*
X135312969Y-109465057D01*
X135312969Y-109465057D02*
X135360588Y-109560295D01*
X135360588Y-109560295D02*
X135360588Y-109655533D01*
X135360588Y-109655533D02*
X135312969Y-109750771D01*
X135312969Y-109750771D02*
X135265350Y-109798390D01*
X135265350Y-109798390D02*
X135170112Y-109846009D01*
X135170112Y-109846009D02*
X134836779Y-109846009D01*
X136027255Y-109369819D02*
X136217731Y-109369819D01*
X136217731Y-109369819D02*
X136312969Y-109417438D01*
X136312969Y-109417438D02*
X136408207Y-109512676D01*
X136408207Y-109512676D02*
X136455826Y-109703152D01*
X136455826Y-109703152D02*
X136455826Y-110036485D01*
X136455826Y-110036485D02*
X136408207Y-110226961D01*
X136408207Y-110226961D02*
X136312969Y-110322200D01*
X136312969Y-110322200D02*
X136217731Y-110369819D01*
X136217731Y-110369819D02*
X136027255Y-110369819D01*
X136027255Y-110369819D02*
X135932017Y-110322200D01*
X135932017Y-110322200D02*
X135836779Y-110226961D01*
X135836779Y-110226961D02*
X135789160Y-110036485D01*
X135789160Y-110036485D02*
X135789160Y-109703152D01*
X135789160Y-109703152D02*
X135836779Y-109512676D01*
X135836779Y-109512676D02*
X135932017Y-109417438D01*
X135932017Y-109417438D02*
X136027255Y-109369819D01*
X137074874Y-109369819D02*
X137265350Y-109369819D01*
X137265350Y-109369819D02*
X137360588Y-109417438D01*
X137360588Y-109417438D02*
X137455826Y-109512676D01*
X137455826Y-109512676D02*
X137503445Y-109703152D01*
X137503445Y-109703152D02*
X137503445Y-110036485D01*
X137503445Y-110036485D02*
X137455826Y-110226961D01*
X137455826Y-110226961D02*
X137360588Y-110322200D01*
X137360588Y-110322200D02*
X137265350Y-110369819D01*
X137265350Y-110369819D02*
X137074874Y-110369819D01*
X137074874Y-110369819D02*
X136979636Y-110322200D01*
X136979636Y-110322200D02*
X136884398Y-110226961D01*
X136884398Y-110226961D02*
X136836779Y-110036485D01*
X136836779Y-110036485D02*
X136836779Y-109703152D01*
X136836779Y-109703152D02*
X136884398Y-109512676D01*
X136884398Y-109512676D02*
X136979636Y-109417438D01*
X136979636Y-109417438D02*
X137074874Y-109369819D01*
X137789160Y-109369819D02*
X138360588Y-109369819D01*
X138074874Y-110369819D02*
X138074874Y-109369819D01*
X149419819Y-118813220D02*
X148419819Y-118813220D01*
X148515057Y-118384649D02*
X148467438Y-118337030D01*
X148467438Y-118337030D02*
X148419819Y-118241792D01*
X148419819Y-118241792D02*
X148419819Y-118003697D01*
X148419819Y-118003697D02*
X148467438Y-117908459D01*
X148467438Y-117908459D02*
X148515057Y-117860840D01*
X148515057Y-117860840D02*
X148610295Y-117813221D01*
X148610295Y-117813221D02*
X148705533Y-117813221D01*
X148705533Y-117813221D02*
X148848390Y-117860840D01*
X148848390Y-117860840D02*
X149419819Y-118432268D01*
X149419819Y-118432268D02*
X149419819Y-117813221D01*
X149324580Y-116813221D02*
X149372200Y-116860840D01*
X149372200Y-116860840D02*
X149419819Y-117003697D01*
X149419819Y-117003697D02*
X149419819Y-117098935D01*
X149419819Y-117098935D02*
X149372200Y-117241792D01*
X149372200Y-117241792D02*
X149276961Y-117337030D01*
X149276961Y-117337030D02*
X149181723Y-117384649D01*
X149181723Y-117384649D02*
X148991247Y-117432268D01*
X148991247Y-117432268D02*
X148848390Y-117432268D01*
X148848390Y-117432268D02*
X148657914Y-117384649D01*
X148657914Y-117384649D02*
X148562676Y-117337030D01*
X148562676Y-117337030D02*
X148467438Y-117241792D01*
X148467438Y-117241792D02*
X148419819Y-117098935D01*
X148419819Y-117098935D02*
X148419819Y-117003697D01*
X148419819Y-117003697D02*
X148467438Y-116860840D01*
X148467438Y-116860840D02*
X148515057Y-116813221D01*
D11*
X174890476Y-88413855D02*
X174890476Y-87613855D01*
X174890476Y-87994807D02*
X175347619Y-87994807D01*
X175347619Y-88413855D02*
X175347619Y-87613855D01*
X175652380Y-87613855D02*
X176147618Y-87613855D01*
X176147618Y-87613855D02*
X175880952Y-87918617D01*
X175880952Y-87918617D02*
X175995237Y-87918617D01*
X175995237Y-87918617D02*
X176071428Y-87956712D01*
X176071428Y-87956712D02*
X176109523Y-87994807D01*
X176109523Y-87994807D02*
X176147618Y-88070998D01*
X176147618Y-88070998D02*
X176147618Y-88261474D01*
X176147618Y-88261474D02*
X176109523Y-88337664D01*
X176109523Y-88337664D02*
X176071428Y-88375760D01*
X176071428Y-88375760D02*
X175995237Y-88413855D01*
X175995237Y-88413855D02*
X175766666Y-88413855D01*
X175766666Y-88413855D02*
X175690475Y-88375760D01*
X175690475Y-88375760D02*
X175652380Y-88337664D01*
X153037664Y-105533332D02*
X153075760Y-105571428D01*
X153075760Y-105571428D02*
X153113855Y-105685713D01*
X153113855Y-105685713D02*
X153113855Y-105761904D01*
X153113855Y-105761904D02*
X153075760Y-105876190D01*
X153075760Y-105876190D02*
X152999569Y-105952380D01*
X152999569Y-105952380D02*
X152923379Y-105990475D01*
X152923379Y-105990475D02*
X152770998Y-106028571D01*
X152770998Y-106028571D02*
X152656712Y-106028571D01*
X152656712Y-106028571D02*
X152504331Y-105990475D01*
X152504331Y-105990475D02*
X152428140Y-105952380D01*
X152428140Y-105952380D02*
X152351950Y-105876190D01*
X152351950Y-105876190D02*
X152313855Y-105761904D01*
X152313855Y-105761904D02*
X152313855Y-105685713D01*
X152313855Y-105685713D02*
X152351950Y-105571428D01*
X152351950Y-105571428D02*
X152390045Y-105533332D01*
X152390045Y-105228571D02*
X152351950Y-105190475D01*
X152351950Y-105190475D02*
X152313855Y-105114285D01*
X152313855Y-105114285D02*
X152313855Y-104923809D01*
X152313855Y-104923809D02*
X152351950Y-104847618D01*
X152351950Y-104847618D02*
X152390045Y-104809523D01*
X152390045Y-104809523D02*
X152466236Y-104771428D01*
X152466236Y-104771428D02*
X152542426Y-104771428D01*
X152542426Y-104771428D02*
X152656712Y-104809523D01*
X152656712Y-104809523D02*
X153113855Y-105266666D01*
X153113855Y-105266666D02*
X153113855Y-104771428D01*
X160366667Y-112062664D02*
X160328571Y-112100760D01*
X160328571Y-112100760D02*
X160214286Y-112138855D01*
X160214286Y-112138855D02*
X160138095Y-112138855D01*
X160138095Y-112138855D02*
X160023809Y-112100760D01*
X160023809Y-112100760D02*
X159947619Y-112024569D01*
X159947619Y-112024569D02*
X159909524Y-111948379D01*
X159909524Y-111948379D02*
X159871428Y-111795998D01*
X159871428Y-111795998D02*
X159871428Y-111681712D01*
X159871428Y-111681712D02*
X159909524Y-111529331D01*
X159909524Y-111529331D02*
X159947619Y-111453140D01*
X159947619Y-111453140D02*
X160023809Y-111376950D01*
X160023809Y-111376950D02*
X160138095Y-111338855D01*
X160138095Y-111338855D02*
X160214286Y-111338855D01*
X160214286Y-111338855D02*
X160328571Y-111376950D01*
X160328571Y-111376950D02*
X160366667Y-111415045D01*
X161052381Y-111605521D02*
X161052381Y-112138855D01*
X160861905Y-111300760D02*
X160671428Y-111872188D01*
X160671428Y-111872188D02*
X161166667Y-111872188D01*
X142466667Y-102013855D02*
X142200000Y-101632902D01*
X142009524Y-102013855D02*
X142009524Y-101213855D01*
X142009524Y-101213855D02*
X142314286Y-101213855D01*
X142314286Y-101213855D02*
X142390476Y-101251950D01*
X142390476Y-101251950D02*
X142428571Y-101290045D01*
X142428571Y-101290045D02*
X142466667Y-101366236D01*
X142466667Y-101366236D02*
X142466667Y-101480521D01*
X142466667Y-101480521D02*
X142428571Y-101556712D01*
X142428571Y-101556712D02*
X142390476Y-101594807D01*
X142390476Y-101594807D02*
X142314286Y-101632902D01*
X142314286Y-101632902D02*
X142009524Y-101632902D01*
X142771428Y-101290045D02*
X142809524Y-101251950D01*
X142809524Y-101251950D02*
X142885714Y-101213855D01*
X142885714Y-101213855D02*
X143076190Y-101213855D01*
X143076190Y-101213855D02*
X143152381Y-101251950D01*
X143152381Y-101251950D02*
X143190476Y-101290045D01*
X143190476Y-101290045D02*
X143228571Y-101366236D01*
X143228571Y-101366236D02*
X143228571Y-101442426D01*
X143228571Y-101442426D02*
X143190476Y-101556712D01*
X143190476Y-101556712D02*
X142733333Y-102013855D01*
X142733333Y-102013855D02*
X143228571Y-102013855D01*
X145985714Y-96287664D02*
X145947618Y-96325760D01*
X145947618Y-96325760D02*
X145833333Y-96363855D01*
X145833333Y-96363855D02*
X145757142Y-96363855D01*
X145757142Y-96363855D02*
X145642856Y-96325760D01*
X145642856Y-96325760D02*
X145566666Y-96249569D01*
X145566666Y-96249569D02*
X145528571Y-96173379D01*
X145528571Y-96173379D02*
X145490475Y-96020998D01*
X145490475Y-96020998D02*
X145490475Y-95906712D01*
X145490475Y-95906712D02*
X145528571Y-95754331D01*
X145528571Y-95754331D02*
X145566666Y-95678140D01*
X145566666Y-95678140D02*
X145642856Y-95601950D01*
X145642856Y-95601950D02*
X145757142Y-95563855D01*
X145757142Y-95563855D02*
X145833333Y-95563855D01*
X145833333Y-95563855D02*
X145947618Y-95601950D01*
X145947618Y-95601950D02*
X145985714Y-95640045D01*
X146747618Y-96363855D02*
X146290475Y-96363855D01*
X146519047Y-96363855D02*
X146519047Y-95563855D01*
X146519047Y-95563855D02*
X146442856Y-95678140D01*
X146442856Y-95678140D02*
X146366666Y-95754331D01*
X146366666Y-95754331D02*
X146290475Y-95792426D01*
X147052380Y-95640045D02*
X147090476Y-95601950D01*
X147090476Y-95601950D02*
X147166666Y-95563855D01*
X147166666Y-95563855D02*
X147357142Y-95563855D01*
X147357142Y-95563855D02*
X147433333Y-95601950D01*
X147433333Y-95601950D02*
X147471428Y-95640045D01*
X147471428Y-95640045D02*
X147509523Y-95716236D01*
X147509523Y-95716236D02*
X147509523Y-95792426D01*
X147509523Y-95792426D02*
X147471428Y-95906712D01*
X147471428Y-95906712D02*
X147014285Y-96363855D01*
X147014285Y-96363855D02*
X147509523Y-96363855D01*
X147866667Y-109787664D02*
X147828571Y-109825760D01*
X147828571Y-109825760D02*
X147714286Y-109863855D01*
X147714286Y-109863855D02*
X147638095Y-109863855D01*
X147638095Y-109863855D02*
X147523809Y-109825760D01*
X147523809Y-109825760D02*
X147447619Y-109749569D01*
X147447619Y-109749569D02*
X147409524Y-109673379D01*
X147409524Y-109673379D02*
X147371428Y-109520998D01*
X147371428Y-109520998D02*
X147371428Y-109406712D01*
X147371428Y-109406712D02*
X147409524Y-109254331D01*
X147409524Y-109254331D02*
X147447619Y-109178140D01*
X147447619Y-109178140D02*
X147523809Y-109101950D01*
X147523809Y-109101950D02*
X147638095Y-109063855D01*
X147638095Y-109063855D02*
X147714286Y-109063855D01*
X147714286Y-109063855D02*
X147828571Y-109101950D01*
X147828571Y-109101950D02*
X147866667Y-109140045D01*
X148323809Y-109406712D02*
X148247619Y-109368617D01*
X148247619Y-109368617D02*
X148209524Y-109330521D01*
X148209524Y-109330521D02*
X148171428Y-109254331D01*
X148171428Y-109254331D02*
X148171428Y-109216236D01*
X148171428Y-109216236D02*
X148209524Y-109140045D01*
X148209524Y-109140045D02*
X148247619Y-109101950D01*
X148247619Y-109101950D02*
X148323809Y-109063855D01*
X148323809Y-109063855D02*
X148476190Y-109063855D01*
X148476190Y-109063855D02*
X148552381Y-109101950D01*
X148552381Y-109101950D02*
X148590476Y-109140045D01*
X148590476Y-109140045D02*
X148628571Y-109216236D01*
X148628571Y-109216236D02*
X148628571Y-109254331D01*
X148628571Y-109254331D02*
X148590476Y-109330521D01*
X148590476Y-109330521D02*
X148552381Y-109368617D01*
X148552381Y-109368617D02*
X148476190Y-109406712D01*
X148476190Y-109406712D02*
X148323809Y-109406712D01*
X148323809Y-109406712D02*
X148247619Y-109444807D01*
X148247619Y-109444807D02*
X148209524Y-109482902D01*
X148209524Y-109482902D02*
X148171428Y-109559093D01*
X148171428Y-109559093D02*
X148171428Y-109711474D01*
X148171428Y-109711474D02*
X148209524Y-109787664D01*
X148209524Y-109787664D02*
X148247619Y-109825760D01*
X148247619Y-109825760D02*
X148323809Y-109863855D01*
X148323809Y-109863855D02*
X148476190Y-109863855D01*
X148476190Y-109863855D02*
X148552381Y-109825760D01*
X148552381Y-109825760D02*
X148590476Y-109787664D01*
X148590476Y-109787664D02*
X148628571Y-109711474D01*
X148628571Y-109711474D02*
X148628571Y-109559093D01*
X148628571Y-109559093D02*
X148590476Y-109482902D01*
X148590476Y-109482902D02*
X148552381Y-109444807D01*
X148552381Y-109444807D02*
X148476190Y-109406712D01*
X144985714Y-103537664D02*
X144947618Y-103575760D01*
X144947618Y-103575760D02*
X144833333Y-103613855D01*
X144833333Y-103613855D02*
X144757142Y-103613855D01*
X144757142Y-103613855D02*
X144642856Y-103575760D01*
X144642856Y-103575760D02*
X144566666Y-103499569D01*
X144566666Y-103499569D02*
X144528571Y-103423379D01*
X144528571Y-103423379D02*
X144490475Y-103270998D01*
X144490475Y-103270998D02*
X144490475Y-103156712D01*
X144490475Y-103156712D02*
X144528571Y-103004331D01*
X144528571Y-103004331D02*
X144566666Y-102928140D01*
X144566666Y-102928140D02*
X144642856Y-102851950D01*
X144642856Y-102851950D02*
X144757142Y-102813855D01*
X144757142Y-102813855D02*
X144833333Y-102813855D01*
X144833333Y-102813855D02*
X144947618Y-102851950D01*
X144947618Y-102851950D02*
X144985714Y-102890045D01*
X145747618Y-103613855D02*
X145290475Y-103613855D01*
X145519047Y-103613855D02*
X145519047Y-102813855D01*
X145519047Y-102813855D02*
X145442856Y-102928140D01*
X145442856Y-102928140D02*
X145366666Y-103004331D01*
X145366666Y-103004331D02*
X145290475Y-103042426D01*
X146014285Y-102813855D02*
X146509523Y-102813855D01*
X146509523Y-102813855D02*
X146242857Y-103118617D01*
X146242857Y-103118617D02*
X146357142Y-103118617D01*
X146357142Y-103118617D02*
X146433333Y-103156712D01*
X146433333Y-103156712D02*
X146471428Y-103194807D01*
X146471428Y-103194807D02*
X146509523Y-103270998D01*
X146509523Y-103270998D02*
X146509523Y-103461474D01*
X146509523Y-103461474D02*
X146471428Y-103537664D01*
X146471428Y-103537664D02*
X146433333Y-103575760D01*
X146433333Y-103575760D02*
X146357142Y-103613855D01*
X146357142Y-103613855D02*
X146128571Y-103613855D01*
X146128571Y-103613855D02*
X146052380Y-103575760D01*
X146052380Y-103575760D02*
X146014285Y-103537664D01*
X143790055Y-85817466D02*
X144361483Y-85817466D01*
X144361483Y-85817466D02*
X144475769Y-85855561D01*
X144475769Y-85855561D02*
X144551960Y-85931752D01*
X144551960Y-85931752D02*
X144590055Y-86046037D01*
X144590055Y-86046037D02*
X144590055Y-86122228D01*
X143866245Y-85474609D02*
X143828150Y-85436513D01*
X143828150Y-85436513D02*
X143790055Y-85360323D01*
X143790055Y-85360323D02*
X143790055Y-85169847D01*
X143790055Y-85169847D02*
X143828150Y-85093656D01*
X143828150Y-85093656D02*
X143866245Y-85055561D01*
X143866245Y-85055561D02*
X143942436Y-85017466D01*
X143942436Y-85017466D02*
X144018626Y-85017466D01*
X144018626Y-85017466D02*
X144132912Y-85055561D01*
X144132912Y-85055561D02*
X144590055Y-85512704D01*
X144590055Y-85512704D02*
X144590055Y-85017466D01*
X148235714Y-103287664D02*
X148197618Y-103325760D01*
X148197618Y-103325760D02*
X148083333Y-103363855D01*
X148083333Y-103363855D02*
X148007142Y-103363855D01*
X148007142Y-103363855D02*
X147892856Y-103325760D01*
X147892856Y-103325760D02*
X147816666Y-103249569D01*
X147816666Y-103249569D02*
X147778571Y-103173379D01*
X147778571Y-103173379D02*
X147740475Y-103020998D01*
X147740475Y-103020998D02*
X147740475Y-102906712D01*
X147740475Y-102906712D02*
X147778571Y-102754331D01*
X147778571Y-102754331D02*
X147816666Y-102678140D01*
X147816666Y-102678140D02*
X147892856Y-102601950D01*
X147892856Y-102601950D02*
X148007142Y-102563855D01*
X148007142Y-102563855D02*
X148083333Y-102563855D01*
X148083333Y-102563855D02*
X148197618Y-102601950D01*
X148197618Y-102601950D02*
X148235714Y-102640045D01*
X148997618Y-103363855D02*
X148540475Y-103363855D01*
X148769047Y-103363855D02*
X148769047Y-102563855D01*
X148769047Y-102563855D02*
X148692856Y-102678140D01*
X148692856Y-102678140D02*
X148616666Y-102754331D01*
X148616666Y-102754331D02*
X148540475Y-102792426D01*
X149759523Y-103363855D02*
X149302380Y-103363855D01*
X149530952Y-103363855D02*
X149530952Y-102563855D01*
X149530952Y-102563855D02*
X149454761Y-102678140D01*
X149454761Y-102678140D02*
X149378571Y-102754331D01*
X149378571Y-102754331D02*
X149302380Y-102792426D01*
X152116667Y-96287664D02*
X152078571Y-96325760D01*
X152078571Y-96325760D02*
X151964286Y-96363855D01*
X151964286Y-96363855D02*
X151888095Y-96363855D01*
X151888095Y-96363855D02*
X151773809Y-96325760D01*
X151773809Y-96325760D02*
X151697619Y-96249569D01*
X151697619Y-96249569D02*
X151659524Y-96173379D01*
X151659524Y-96173379D02*
X151621428Y-96020998D01*
X151621428Y-96020998D02*
X151621428Y-95906712D01*
X151621428Y-95906712D02*
X151659524Y-95754331D01*
X151659524Y-95754331D02*
X151697619Y-95678140D01*
X151697619Y-95678140D02*
X151773809Y-95601950D01*
X151773809Y-95601950D02*
X151888095Y-95563855D01*
X151888095Y-95563855D02*
X151964286Y-95563855D01*
X151964286Y-95563855D02*
X152078571Y-95601950D01*
X152078571Y-95601950D02*
X152116667Y-95640045D01*
X152383333Y-95563855D02*
X152916667Y-95563855D01*
X152916667Y-95563855D02*
X152573809Y-96363855D01*
X150563855Y-115233332D02*
X150182902Y-115499999D01*
X150563855Y-115690475D02*
X149763855Y-115690475D01*
X149763855Y-115690475D02*
X149763855Y-115385713D01*
X149763855Y-115385713D02*
X149801950Y-115309523D01*
X149801950Y-115309523D02*
X149840045Y-115271428D01*
X149840045Y-115271428D02*
X149916236Y-115233332D01*
X149916236Y-115233332D02*
X150030521Y-115233332D01*
X150030521Y-115233332D02*
X150106712Y-115271428D01*
X150106712Y-115271428D02*
X150144807Y-115309523D01*
X150144807Y-115309523D02*
X150182902Y-115385713D01*
X150182902Y-115385713D02*
X150182902Y-115690475D01*
X150030521Y-114547618D02*
X150563855Y-114547618D01*
X149725760Y-114738094D02*
X150297188Y-114928571D01*
X150297188Y-114928571D02*
X150297188Y-114433332D01*
X169366667Y-97863855D02*
X169100000Y-97482902D01*
X168909524Y-97863855D02*
X168909524Y-97063855D01*
X168909524Y-97063855D02*
X169214286Y-97063855D01*
X169214286Y-97063855D02*
X169290476Y-97101950D01*
X169290476Y-97101950D02*
X169328571Y-97140045D01*
X169328571Y-97140045D02*
X169366667Y-97216236D01*
X169366667Y-97216236D02*
X169366667Y-97330521D01*
X169366667Y-97330521D02*
X169328571Y-97406712D01*
X169328571Y-97406712D02*
X169290476Y-97444807D01*
X169290476Y-97444807D02*
X169214286Y-97482902D01*
X169214286Y-97482902D02*
X168909524Y-97482902D01*
X169633333Y-97063855D02*
X170128571Y-97063855D01*
X170128571Y-97063855D02*
X169861905Y-97368617D01*
X169861905Y-97368617D02*
X169976190Y-97368617D01*
X169976190Y-97368617D02*
X170052381Y-97406712D01*
X170052381Y-97406712D02*
X170090476Y-97444807D01*
X170090476Y-97444807D02*
X170128571Y-97520998D01*
X170128571Y-97520998D02*
X170128571Y-97711474D01*
X170128571Y-97711474D02*
X170090476Y-97787664D01*
X170090476Y-97787664D02*
X170052381Y-97825760D01*
X170052381Y-97825760D02*
X169976190Y-97863855D01*
X169976190Y-97863855D02*
X169747619Y-97863855D01*
X169747619Y-97863855D02*
X169671428Y-97825760D01*
X169671428Y-97825760D02*
X169633333Y-97787664D01*
X152537664Y-92383332D02*
X152575760Y-92421428D01*
X152575760Y-92421428D02*
X152613855Y-92535713D01*
X152613855Y-92535713D02*
X152613855Y-92611904D01*
X152613855Y-92611904D02*
X152575760Y-92726190D01*
X152575760Y-92726190D02*
X152499569Y-92802380D01*
X152499569Y-92802380D02*
X152423379Y-92840475D01*
X152423379Y-92840475D02*
X152270998Y-92878571D01*
X152270998Y-92878571D02*
X152156712Y-92878571D01*
X152156712Y-92878571D02*
X152004331Y-92840475D01*
X152004331Y-92840475D02*
X151928140Y-92802380D01*
X151928140Y-92802380D02*
X151851950Y-92726190D01*
X151851950Y-92726190D02*
X151813855Y-92611904D01*
X151813855Y-92611904D02*
X151813855Y-92535713D01*
X151813855Y-92535713D02*
X151851950Y-92421428D01*
X151851950Y-92421428D02*
X151890045Y-92383332D01*
X151813855Y-91697618D02*
X151813855Y-91849999D01*
X151813855Y-91849999D02*
X151851950Y-91926190D01*
X151851950Y-91926190D02*
X151890045Y-91964285D01*
X151890045Y-91964285D02*
X152004331Y-92040475D01*
X152004331Y-92040475D02*
X152156712Y-92078571D01*
X152156712Y-92078571D02*
X152461474Y-92078571D01*
X152461474Y-92078571D02*
X152537664Y-92040475D01*
X152537664Y-92040475D02*
X152575760Y-92002380D01*
X152575760Y-92002380D02*
X152613855Y-91926190D01*
X152613855Y-91926190D02*
X152613855Y-91773809D01*
X152613855Y-91773809D02*
X152575760Y-91697618D01*
X152575760Y-91697618D02*
X152537664Y-91659523D01*
X152537664Y-91659523D02*
X152461474Y-91621428D01*
X152461474Y-91621428D02*
X152270998Y-91621428D01*
X152270998Y-91621428D02*
X152194807Y-91659523D01*
X152194807Y-91659523D02*
X152156712Y-91697618D01*
X152156712Y-91697618D02*
X152118617Y-91773809D01*
X152118617Y-91773809D02*
X152118617Y-91926190D01*
X152118617Y-91926190D02*
X152156712Y-92002380D01*
X152156712Y-92002380D02*
X152194807Y-92040475D01*
X152194807Y-92040475D02*
X152270998Y-92078571D01*
X155213855Y-115083332D02*
X154832902Y-115349999D01*
X155213855Y-115540475D02*
X154413855Y-115540475D01*
X154413855Y-115540475D02*
X154413855Y-115235713D01*
X154413855Y-115235713D02*
X154451950Y-115159523D01*
X154451950Y-115159523D02*
X154490045Y-115121428D01*
X154490045Y-115121428D02*
X154566236Y-115083332D01*
X154566236Y-115083332D02*
X154680521Y-115083332D01*
X154680521Y-115083332D02*
X154756712Y-115121428D01*
X154756712Y-115121428D02*
X154794807Y-115159523D01*
X154794807Y-115159523D02*
X154832902Y-115235713D01*
X154832902Y-115235713D02*
X154832902Y-115540475D01*
X154413855Y-114359523D02*
X154413855Y-114740475D01*
X154413855Y-114740475D02*
X154794807Y-114778571D01*
X154794807Y-114778571D02*
X154756712Y-114740475D01*
X154756712Y-114740475D02*
X154718617Y-114664285D01*
X154718617Y-114664285D02*
X154718617Y-114473809D01*
X154718617Y-114473809D02*
X154756712Y-114397618D01*
X154756712Y-114397618D02*
X154794807Y-114359523D01*
X154794807Y-114359523D02*
X154870998Y-114321428D01*
X154870998Y-114321428D02*
X155061474Y-114321428D01*
X155061474Y-114321428D02*
X155137664Y-114359523D01*
X155137664Y-114359523D02*
X155175760Y-114397618D01*
X155175760Y-114397618D02*
X155213855Y-114473809D01*
X155213855Y-114473809D02*
X155213855Y-114664285D01*
X155213855Y-114664285D02*
X155175760Y-114740475D01*
X155175760Y-114740475D02*
X155137664Y-114778571D01*
X167813855Y-85766666D02*
X168385283Y-85766666D01*
X168385283Y-85766666D02*
X168499569Y-85804761D01*
X168499569Y-85804761D02*
X168575760Y-85880952D01*
X168575760Y-85880952D02*
X168613855Y-85995237D01*
X168613855Y-85995237D02*
X168613855Y-86071428D01*
X167813855Y-85461904D02*
X167813855Y-84966666D01*
X167813855Y-84966666D02*
X168118617Y-85233332D01*
X168118617Y-85233332D02*
X168118617Y-85119047D01*
X168118617Y-85119047D02*
X168156712Y-85042856D01*
X168156712Y-85042856D02*
X168194807Y-85004761D01*
X168194807Y-85004761D02*
X168270998Y-84966666D01*
X168270998Y-84966666D02*
X168461474Y-84966666D01*
X168461474Y-84966666D02*
X168537664Y-85004761D01*
X168537664Y-85004761D02*
X168575760Y-85042856D01*
X168575760Y-85042856D02*
X168613855Y-85119047D01*
X168613855Y-85119047D02*
X168613855Y-85347618D01*
X168613855Y-85347618D02*
X168575760Y-85423809D01*
X168575760Y-85423809D02*
X168537664Y-85461904D01*
X135683332Y-91475760D02*
X135797618Y-91513855D01*
X135797618Y-91513855D02*
X135988094Y-91513855D01*
X135988094Y-91513855D02*
X136064285Y-91475760D01*
X136064285Y-91475760D02*
X136102380Y-91437664D01*
X136102380Y-91437664D02*
X136140475Y-91361474D01*
X136140475Y-91361474D02*
X136140475Y-91285283D01*
X136140475Y-91285283D02*
X136102380Y-91209093D01*
X136102380Y-91209093D02*
X136064285Y-91170998D01*
X136064285Y-91170998D02*
X135988094Y-91132902D01*
X135988094Y-91132902D02*
X135835713Y-91094807D01*
X135835713Y-91094807D02*
X135759523Y-91056712D01*
X135759523Y-91056712D02*
X135721428Y-91018617D01*
X135721428Y-91018617D02*
X135683332Y-90942426D01*
X135683332Y-90942426D02*
X135683332Y-90866236D01*
X135683332Y-90866236D02*
X135721428Y-90790045D01*
X135721428Y-90790045D02*
X135759523Y-90751950D01*
X135759523Y-90751950D02*
X135835713Y-90713855D01*
X135835713Y-90713855D02*
X136026190Y-90713855D01*
X136026190Y-90713855D02*
X136140475Y-90751950D01*
X136407142Y-90713855D02*
X136597618Y-91513855D01*
X136597618Y-91513855D02*
X136749999Y-90942426D01*
X136749999Y-90942426D02*
X136902380Y-91513855D01*
X136902380Y-91513855D02*
X137092857Y-90713855D01*
X137816666Y-91513855D02*
X137359523Y-91513855D01*
X137588095Y-91513855D02*
X137588095Y-90713855D01*
X137588095Y-90713855D02*
X137511904Y-90828140D01*
X137511904Y-90828140D02*
X137435714Y-90904331D01*
X137435714Y-90904331D02*
X137359523Y-90942426D01*
X166390476Y-113013855D02*
X166390476Y-113661474D01*
X166390476Y-113661474D02*
X166428571Y-113737664D01*
X166428571Y-113737664D02*
X166466666Y-113775760D01*
X166466666Y-113775760D02*
X166542857Y-113813855D01*
X166542857Y-113813855D02*
X166695238Y-113813855D01*
X166695238Y-113813855D02*
X166771428Y-113775760D01*
X166771428Y-113775760D02*
X166809523Y-113737664D01*
X166809523Y-113737664D02*
X166847619Y-113661474D01*
X166847619Y-113661474D02*
X166847619Y-113013855D01*
X167190475Y-113090045D02*
X167228571Y-113051950D01*
X167228571Y-113051950D02*
X167304761Y-113013855D01*
X167304761Y-113013855D02*
X167495237Y-113013855D01*
X167495237Y-113013855D02*
X167571428Y-113051950D01*
X167571428Y-113051950D02*
X167609523Y-113090045D01*
X167609523Y-113090045D02*
X167647618Y-113166236D01*
X167647618Y-113166236D02*
X167647618Y-113242426D01*
X167647618Y-113242426D02*
X167609523Y-113356712D01*
X167609523Y-113356712D02*
X167152380Y-113813855D01*
X167152380Y-113813855D02*
X167647618Y-113813855D01*
X166266667Y-104437664D02*
X166228571Y-104475760D01*
X166228571Y-104475760D02*
X166114286Y-104513855D01*
X166114286Y-104513855D02*
X166038095Y-104513855D01*
X166038095Y-104513855D02*
X165923809Y-104475760D01*
X165923809Y-104475760D02*
X165847619Y-104399569D01*
X165847619Y-104399569D02*
X165809524Y-104323379D01*
X165809524Y-104323379D02*
X165771428Y-104170998D01*
X165771428Y-104170998D02*
X165771428Y-104056712D01*
X165771428Y-104056712D02*
X165809524Y-103904331D01*
X165809524Y-103904331D02*
X165847619Y-103828140D01*
X165847619Y-103828140D02*
X165923809Y-103751950D01*
X165923809Y-103751950D02*
X166038095Y-103713855D01*
X166038095Y-103713855D02*
X166114286Y-103713855D01*
X166114286Y-103713855D02*
X166228571Y-103751950D01*
X166228571Y-103751950D02*
X166266667Y-103790045D01*
X166647619Y-104513855D02*
X166800000Y-104513855D01*
X166800000Y-104513855D02*
X166876190Y-104475760D01*
X166876190Y-104475760D02*
X166914286Y-104437664D01*
X166914286Y-104437664D02*
X166990476Y-104323379D01*
X166990476Y-104323379D02*
X167028571Y-104170998D01*
X167028571Y-104170998D02*
X167028571Y-103866236D01*
X167028571Y-103866236D02*
X166990476Y-103790045D01*
X166990476Y-103790045D02*
X166952381Y-103751950D01*
X166952381Y-103751950D02*
X166876190Y-103713855D01*
X166876190Y-103713855D02*
X166723809Y-103713855D01*
X166723809Y-103713855D02*
X166647619Y-103751950D01*
X166647619Y-103751950D02*
X166609524Y-103790045D01*
X166609524Y-103790045D02*
X166571428Y-103866236D01*
X166571428Y-103866236D02*
X166571428Y-104056712D01*
X166571428Y-104056712D02*
X166609524Y-104132902D01*
X166609524Y-104132902D02*
X166647619Y-104170998D01*
X166647619Y-104170998D02*
X166723809Y-104209093D01*
X166723809Y-104209093D02*
X166876190Y-104209093D01*
X166876190Y-104209093D02*
X166952381Y-104170998D01*
X166952381Y-104170998D02*
X166990476Y-104132902D01*
X166990476Y-104132902D02*
X167028571Y-104056712D01*
X171459524Y-107063855D02*
X171459524Y-106263855D01*
X171459524Y-106263855D02*
X171650000Y-106263855D01*
X171650000Y-106263855D02*
X171764286Y-106301950D01*
X171764286Y-106301950D02*
X171840476Y-106378140D01*
X171840476Y-106378140D02*
X171878571Y-106454331D01*
X171878571Y-106454331D02*
X171916667Y-106606712D01*
X171916667Y-106606712D02*
X171916667Y-106720998D01*
X171916667Y-106720998D02*
X171878571Y-106873379D01*
X171878571Y-106873379D02*
X171840476Y-106949569D01*
X171840476Y-106949569D02*
X171764286Y-107025760D01*
X171764286Y-107025760D02*
X171650000Y-107063855D01*
X171650000Y-107063855D02*
X171459524Y-107063855D01*
X172678571Y-107063855D02*
X172221428Y-107063855D01*
X172450000Y-107063855D02*
X172450000Y-106263855D01*
X172450000Y-106263855D02*
X172373809Y-106378140D01*
X172373809Y-106378140D02*
X172297619Y-106454331D01*
X172297619Y-106454331D02*
X172221428Y-106492426D01*
X171983333Y-105063855D02*
X171983333Y-105635283D01*
X171983333Y-105635283D02*
X171945238Y-105749569D01*
X171945238Y-105749569D02*
X171869047Y-105825760D01*
X171869047Y-105825760D02*
X171754762Y-105863855D01*
X171754762Y-105863855D02*
X171678571Y-105863855D01*
X172783333Y-105863855D02*
X172326190Y-105863855D01*
X172554762Y-105863855D02*
X172554762Y-105063855D01*
X172554762Y-105063855D02*
X172478571Y-105178140D01*
X172478571Y-105178140D02*
X172402381Y-105254331D01*
X172402381Y-105254331D02*
X172326190Y-105292426D01*
X148437664Y-104433332D02*
X148475760Y-104471428D01*
X148475760Y-104471428D02*
X148513855Y-104585713D01*
X148513855Y-104585713D02*
X148513855Y-104661904D01*
X148513855Y-104661904D02*
X148475760Y-104776190D01*
X148475760Y-104776190D02*
X148399569Y-104852380D01*
X148399569Y-104852380D02*
X148323379Y-104890475D01*
X148323379Y-104890475D02*
X148170998Y-104928571D01*
X148170998Y-104928571D02*
X148056712Y-104928571D01*
X148056712Y-104928571D02*
X147904331Y-104890475D01*
X147904331Y-104890475D02*
X147828140Y-104852380D01*
X147828140Y-104852380D02*
X147751950Y-104776190D01*
X147751950Y-104776190D02*
X147713855Y-104661904D01*
X147713855Y-104661904D02*
X147713855Y-104585713D01*
X147713855Y-104585713D02*
X147751950Y-104471428D01*
X147751950Y-104471428D02*
X147790045Y-104433332D01*
X148513855Y-103671428D02*
X148513855Y-104128571D01*
X148513855Y-103899999D02*
X147713855Y-103899999D01*
X147713855Y-103899999D02*
X147828140Y-103976190D01*
X147828140Y-103976190D02*
X147904331Y-104052380D01*
X147904331Y-104052380D02*
X147942426Y-104128571D01*
X157415476Y-94526355D02*
X157415476Y-95173974D01*
X157415476Y-95173974D02*
X157453571Y-95250164D01*
X157453571Y-95250164D02*
X157491666Y-95288260D01*
X157491666Y-95288260D02*
X157567857Y-95326355D01*
X157567857Y-95326355D02*
X157720238Y-95326355D01*
X157720238Y-95326355D02*
X157796428Y-95288260D01*
X157796428Y-95288260D02*
X157834523Y-95250164D01*
X157834523Y-95250164D02*
X157872619Y-95173974D01*
X157872619Y-95173974D02*
X157872619Y-94526355D01*
X158672618Y-95326355D02*
X158215475Y-95326355D01*
X158444047Y-95326355D02*
X158444047Y-94526355D01*
X158444047Y-94526355D02*
X158367856Y-94640640D01*
X158367856Y-94640640D02*
X158291666Y-94716831D01*
X158291666Y-94716831D02*
X158215475Y-94754926D01*
X133490476Y-88463855D02*
X133490476Y-87663855D01*
X133490476Y-88044807D02*
X133947619Y-88044807D01*
X133947619Y-88463855D02*
X133947619Y-87663855D01*
X134671428Y-87930521D02*
X134671428Y-88463855D01*
X134480952Y-87625760D02*
X134290475Y-88197188D01*
X134290475Y-88197188D02*
X134785714Y-88197188D01*
X145169048Y-97582902D02*
X145169048Y-97963855D01*
X144902381Y-97163855D02*
X145169048Y-97582902D01*
X145169048Y-97582902D02*
X145435714Y-97163855D01*
X146121428Y-97963855D02*
X145664285Y-97963855D01*
X145892857Y-97963855D02*
X145892857Y-97163855D01*
X145892857Y-97163855D02*
X145816666Y-97278140D01*
X145816666Y-97278140D02*
X145740476Y-97354331D01*
X145740476Y-97354331D02*
X145664285Y-97392426D01*
X175116667Y-110613855D02*
X174850000Y-110232902D01*
X174659524Y-110613855D02*
X174659524Y-109813855D01*
X174659524Y-109813855D02*
X174964286Y-109813855D01*
X174964286Y-109813855D02*
X175040476Y-109851950D01*
X175040476Y-109851950D02*
X175078571Y-109890045D01*
X175078571Y-109890045D02*
X175116667Y-109966236D01*
X175116667Y-109966236D02*
X175116667Y-110080521D01*
X175116667Y-110080521D02*
X175078571Y-110156712D01*
X175078571Y-110156712D02*
X175040476Y-110194807D01*
X175040476Y-110194807D02*
X174964286Y-110232902D01*
X174964286Y-110232902D02*
X174659524Y-110232902D01*
X175878571Y-110613855D02*
X175421428Y-110613855D01*
X175650000Y-110613855D02*
X175650000Y-109813855D01*
X175650000Y-109813855D02*
X175573809Y-109928140D01*
X175573809Y-109928140D02*
X175497619Y-110004331D01*
X175497619Y-110004331D02*
X175421428Y-110042426D01*
X161713855Y-118466666D02*
X162285283Y-118466666D01*
X162285283Y-118466666D02*
X162399569Y-118504761D01*
X162399569Y-118504761D02*
X162475760Y-118580952D01*
X162475760Y-118580952D02*
X162513855Y-118695237D01*
X162513855Y-118695237D02*
X162513855Y-118771428D01*
X161980521Y-117742856D02*
X162513855Y-117742856D01*
X161675760Y-117933332D02*
X162247188Y-118123809D01*
X162247188Y-118123809D02*
X162247188Y-117628570D01*
X152833333Y-106944807D02*
X152566667Y-106944807D01*
X152566667Y-107363855D02*
X152566667Y-106563855D01*
X152566667Y-106563855D02*
X152947619Y-106563855D01*
X153519047Y-106944807D02*
X153633333Y-106982902D01*
X153633333Y-106982902D02*
X153671428Y-107020998D01*
X153671428Y-107020998D02*
X153709524Y-107097188D01*
X153709524Y-107097188D02*
X153709524Y-107211474D01*
X153709524Y-107211474D02*
X153671428Y-107287664D01*
X153671428Y-107287664D02*
X153633333Y-107325760D01*
X153633333Y-107325760D02*
X153557143Y-107363855D01*
X153557143Y-107363855D02*
X153252381Y-107363855D01*
X153252381Y-107363855D02*
X153252381Y-106563855D01*
X153252381Y-106563855D02*
X153519047Y-106563855D01*
X153519047Y-106563855D02*
X153595238Y-106601950D01*
X153595238Y-106601950D02*
X153633333Y-106640045D01*
X153633333Y-106640045D02*
X153671428Y-106716236D01*
X153671428Y-106716236D02*
X153671428Y-106792426D01*
X153671428Y-106792426D02*
X153633333Y-106868617D01*
X153633333Y-106868617D02*
X153595238Y-106906712D01*
X153595238Y-106906712D02*
X153519047Y-106944807D01*
X153519047Y-106944807D02*
X153252381Y-106944807D01*
X154471428Y-107363855D02*
X154014285Y-107363855D01*
X154242857Y-107363855D02*
X154242857Y-106563855D01*
X154242857Y-106563855D02*
X154166666Y-106678140D01*
X154166666Y-106678140D02*
X154090476Y-106754331D01*
X154090476Y-106754331D02*
X154014285Y-106792426D01*
X174290476Y-115363855D02*
X174290476Y-114563855D01*
X174290476Y-114944807D02*
X174747619Y-114944807D01*
X174747619Y-115363855D02*
X174747619Y-114563855D01*
X175090475Y-114640045D02*
X175128571Y-114601950D01*
X175128571Y-114601950D02*
X175204761Y-114563855D01*
X175204761Y-114563855D02*
X175395237Y-114563855D01*
X175395237Y-114563855D02*
X175471428Y-114601950D01*
X175471428Y-114601950D02*
X175509523Y-114640045D01*
X175509523Y-114640045D02*
X175547618Y-114716236D01*
X175547618Y-114716236D02*
X175547618Y-114792426D01*
X175547618Y-114792426D02*
X175509523Y-114906712D01*
X175509523Y-114906712D02*
X175052380Y-115363855D01*
X175052380Y-115363855D02*
X175547618Y-115363855D01*
X172235714Y-113237664D02*
X172197618Y-113275760D01*
X172197618Y-113275760D02*
X172083333Y-113313855D01*
X172083333Y-113313855D02*
X172007142Y-113313855D01*
X172007142Y-113313855D02*
X171892856Y-113275760D01*
X171892856Y-113275760D02*
X171816666Y-113199569D01*
X171816666Y-113199569D02*
X171778571Y-113123379D01*
X171778571Y-113123379D02*
X171740475Y-112970998D01*
X171740475Y-112970998D02*
X171740475Y-112856712D01*
X171740475Y-112856712D02*
X171778571Y-112704331D01*
X171778571Y-112704331D02*
X171816666Y-112628140D01*
X171816666Y-112628140D02*
X171892856Y-112551950D01*
X171892856Y-112551950D02*
X172007142Y-112513855D01*
X172007142Y-112513855D02*
X172083333Y-112513855D01*
X172083333Y-112513855D02*
X172197618Y-112551950D01*
X172197618Y-112551950D02*
X172235714Y-112590045D01*
X172997618Y-113313855D02*
X172540475Y-113313855D01*
X172769047Y-113313855D02*
X172769047Y-112513855D01*
X172769047Y-112513855D02*
X172692856Y-112628140D01*
X172692856Y-112628140D02*
X172616666Y-112704331D01*
X172616666Y-112704331D02*
X172540475Y-112742426D01*
X173492857Y-112513855D02*
X173569047Y-112513855D01*
X173569047Y-112513855D02*
X173645238Y-112551950D01*
X173645238Y-112551950D02*
X173683333Y-112590045D01*
X173683333Y-112590045D02*
X173721428Y-112666236D01*
X173721428Y-112666236D02*
X173759523Y-112818617D01*
X173759523Y-112818617D02*
X173759523Y-113009093D01*
X173759523Y-113009093D02*
X173721428Y-113161474D01*
X173721428Y-113161474D02*
X173683333Y-113237664D01*
X173683333Y-113237664D02*
X173645238Y-113275760D01*
X173645238Y-113275760D02*
X173569047Y-113313855D01*
X173569047Y-113313855D02*
X173492857Y-113313855D01*
X173492857Y-113313855D02*
X173416666Y-113275760D01*
X173416666Y-113275760D02*
X173378571Y-113237664D01*
X173378571Y-113237664D02*
X173340476Y-113161474D01*
X173340476Y-113161474D02*
X173302380Y-113009093D01*
X173302380Y-113009093D02*
X173302380Y-112818617D01*
X173302380Y-112818617D02*
X173340476Y-112666236D01*
X173340476Y-112666236D02*
X173378571Y-112590045D01*
X173378571Y-112590045D02*
X173416666Y-112551950D01*
X173416666Y-112551950D02*
X173492857Y-112513855D01*
X133890476Y-115213855D02*
X133890476Y-114413855D01*
X133890476Y-114794807D02*
X134347619Y-114794807D01*
X134347619Y-115213855D02*
X134347619Y-114413855D01*
X135147618Y-115213855D02*
X134690475Y-115213855D01*
X134919047Y-115213855D02*
X134919047Y-114413855D01*
X134919047Y-114413855D02*
X134842856Y-114528140D01*
X134842856Y-114528140D02*
X134766666Y-114604331D01*
X134766666Y-114604331D02*
X134690475Y-114642426D01*
X143866667Y-107037664D02*
X143828571Y-107075760D01*
X143828571Y-107075760D02*
X143714286Y-107113855D01*
X143714286Y-107113855D02*
X143638095Y-107113855D01*
X143638095Y-107113855D02*
X143523809Y-107075760D01*
X143523809Y-107075760D02*
X143447619Y-106999569D01*
X143447619Y-106999569D02*
X143409524Y-106923379D01*
X143409524Y-106923379D02*
X143371428Y-106770998D01*
X143371428Y-106770998D02*
X143371428Y-106656712D01*
X143371428Y-106656712D02*
X143409524Y-106504331D01*
X143409524Y-106504331D02*
X143447619Y-106428140D01*
X143447619Y-106428140D02*
X143523809Y-106351950D01*
X143523809Y-106351950D02*
X143638095Y-106313855D01*
X143638095Y-106313855D02*
X143714286Y-106313855D01*
X143714286Y-106313855D02*
X143828571Y-106351950D01*
X143828571Y-106351950D02*
X143866667Y-106390045D01*
X144133333Y-106313855D02*
X144628571Y-106313855D01*
X144628571Y-106313855D02*
X144361905Y-106618617D01*
X144361905Y-106618617D02*
X144476190Y-106618617D01*
X144476190Y-106618617D02*
X144552381Y-106656712D01*
X144552381Y-106656712D02*
X144590476Y-106694807D01*
X144590476Y-106694807D02*
X144628571Y-106770998D01*
X144628571Y-106770998D02*
X144628571Y-106961474D01*
X144628571Y-106961474D02*
X144590476Y-107037664D01*
X144590476Y-107037664D02*
X144552381Y-107075760D01*
X144552381Y-107075760D02*
X144476190Y-107113855D01*
X144476190Y-107113855D02*
X144247619Y-107113855D01*
X144247619Y-107113855D02*
X144171428Y-107075760D01*
X144171428Y-107075760D02*
X144133333Y-107037664D01*
X166866667Y-96037664D02*
X166828571Y-96075760D01*
X166828571Y-96075760D02*
X166714286Y-96113855D01*
X166714286Y-96113855D02*
X166638095Y-96113855D01*
X166638095Y-96113855D02*
X166523809Y-96075760D01*
X166523809Y-96075760D02*
X166447619Y-95999569D01*
X166447619Y-95999569D02*
X166409524Y-95923379D01*
X166409524Y-95923379D02*
X166371428Y-95770998D01*
X166371428Y-95770998D02*
X166371428Y-95656712D01*
X166371428Y-95656712D02*
X166409524Y-95504331D01*
X166409524Y-95504331D02*
X166447619Y-95428140D01*
X166447619Y-95428140D02*
X166523809Y-95351950D01*
X166523809Y-95351950D02*
X166638095Y-95313855D01*
X166638095Y-95313855D02*
X166714286Y-95313855D01*
X166714286Y-95313855D02*
X166828571Y-95351950D01*
X166828571Y-95351950D02*
X166866667Y-95390045D01*
X167590476Y-95313855D02*
X167209524Y-95313855D01*
X167209524Y-95313855D02*
X167171428Y-95694807D01*
X167171428Y-95694807D02*
X167209524Y-95656712D01*
X167209524Y-95656712D02*
X167285714Y-95618617D01*
X167285714Y-95618617D02*
X167476190Y-95618617D01*
X167476190Y-95618617D02*
X167552381Y-95656712D01*
X167552381Y-95656712D02*
X167590476Y-95694807D01*
X167590476Y-95694807D02*
X167628571Y-95770998D01*
X167628571Y-95770998D02*
X167628571Y-95961474D01*
X167628571Y-95961474D02*
X167590476Y-96037664D01*
X167590476Y-96037664D02*
X167552381Y-96075760D01*
X167552381Y-96075760D02*
X167476190Y-96113855D01*
X167476190Y-96113855D02*
X167285714Y-96113855D01*
X167285714Y-96113855D02*
X167209524Y-96075760D01*
X167209524Y-96075760D02*
X167171428Y-96037664D01*
%TO.C,C2*%
X150837836Y-105140000D02*
X150622164Y-105140000D01*
X150837836Y-105860000D02*
X150622164Y-105860000D01*
%TO.C,C4*%
X159990000Y-109359420D02*
X159990000Y-109640580D01*
X161010000Y-109359420D02*
X161010000Y-109640580D01*
%TO.C,R2*%
X142370000Y-100243641D02*
X142370000Y-99936359D01*
X143130000Y-100243641D02*
X143130000Y-99936359D01*
%TO.C,C12*%
X148740000Y-99477836D02*
X148740000Y-99262164D01*
X149460000Y-99477836D02*
X149460000Y-99262164D01*
%TO.C,C8*%
X149240000Y-109384420D02*
X149240000Y-109665580D01*
X150260000Y-109384420D02*
X150260000Y-109665580D01*
%TO.C,C13*%
X148740000Y-101262164D02*
X148740000Y-101477836D01*
X149460000Y-101262164D02*
X149460000Y-101477836D01*
%TO.C,J2*%
X145310000Y-84120000D02*
X145310000Y-86880000D01*
X153040000Y-84120000D02*
X145310000Y-84120000D01*
X153040000Y-84120000D02*
X153040000Y-86880000D01*
X153040000Y-86880000D02*
X145310000Y-86880000D01*
X154310000Y-84120000D02*
X155690000Y-84120000D01*
X155690000Y-84120000D02*
X155690000Y-85500000D01*
%TO.C,C11*%
X149990000Y-101512164D02*
X149990000Y-101727836D01*
X150710000Y-101512164D02*
X150710000Y-101727836D01*
%TO.C,C7*%
X149990000Y-96140580D02*
X149990000Y-95859420D01*
X151010000Y-96140580D02*
X151010000Y-95859420D01*
%TO.C,R4*%
X152956359Y-114870000D02*
X153263641Y-114870000D01*
X152956359Y-115630000D02*
X153263641Y-115630000D01*
%TO.C,R3*%
X169370000Y-99086359D02*
X169370000Y-99393641D01*
X170130000Y-99086359D02*
X170130000Y-99393641D01*
%TO.C,C6*%
X153859420Y-93490000D02*
X154140580Y-93490000D01*
X153859420Y-94510000D02*
X154140580Y-94510000D01*
%TO.C,R5*%
X156286359Y-114970000D02*
X156593641Y-114970000D01*
X156286359Y-115730000D02*
X156593641Y-115730000D01*
%TO.C,J3*%
X156750000Y-84120000D02*
X156750000Y-86880000D01*
X164480000Y-84120000D02*
X156750000Y-84120000D01*
X164480000Y-84120000D02*
X164480000Y-86880000D01*
X164480000Y-86880000D02*
X156750000Y-86880000D01*
X165750000Y-84120000D02*
X167130000Y-84120000D01*
X167130000Y-84120000D02*
X167130000Y-85500000D01*
%TO.C,SW1*%
X133850000Y-105550000D02*
X133850000Y-95650000D01*
X134600000Y-93600000D02*
X139800000Y-93600000D01*
X139800000Y-107600000D02*
X134600000Y-107600000D01*
X140200000Y-93300000D02*
X141500000Y-93300000D01*
X140550000Y-95650000D02*
X140550000Y-105550000D01*
X141500000Y-93300000D02*
X141500000Y-94600000D01*
%TO.C,U2*%
X164840000Y-105790000D02*
X164840000Y-107050000D01*
X164840000Y-112610000D02*
X164840000Y-111350000D01*
X168600000Y-105790000D02*
X164840000Y-105790000D01*
X168600000Y-112610000D02*
X164840000Y-112610000D01*
X170120000Y-112840000D02*
X169640000Y-112840000D01*
X169880000Y-112510000D01*
X170120000Y-112840000D01*
G36*
X170120000Y-112840000D02*
G01*
X169640000Y-112840000D01*
X169880000Y-112510000D01*
X170120000Y-112840000D01*
G37*
%TO.C,C9*%
X169261252Y-103365000D02*
X168738748Y-103365000D01*
X169261252Y-104835000D02*
X168738748Y-104835000D01*
%TO.C,D1*%
X173950000Y-108235000D02*
X176235000Y-108235000D01*
X176235000Y-106765000D02*
X173950000Y-106765000D01*
X176235000Y-108235000D02*
X176235000Y-106765000D01*
D10*
%TO.C,J1*%
X171425000Y-100950000D02*
X171425000Y-101675000D01*
X171425000Y-101675000D02*
X171850000Y-101675000D01*
X171850000Y-98075000D02*
X171850000Y-97075000D01*
X171850000Y-101675000D02*
X171850000Y-102675000D01*
X173600000Y-104025000D02*
X175000000Y-104025000D01*
X175000000Y-95725000D02*
X173600000Y-95725000D01*
X177400000Y-104025000D02*
X177550000Y-104025000D01*
X177550000Y-95725000D02*
X177400000Y-95725000D01*
X177550000Y-96025000D02*
X177550000Y-95725000D01*
X177550000Y-103725000D02*
X178000000Y-103725000D01*
X177550000Y-104025000D02*
X177550000Y-103725000D01*
X178000000Y-96025000D02*
X177550000Y-96025000D01*
D11*
%TO.C,C1*%
X149837836Y-103890000D02*
X149622164Y-103890000D01*
X149837836Y-104610000D02*
X149622164Y-104610000D01*
%TO.C,U1*%
X152965000Y-97152500D02*
X153415000Y-97152500D01*
X152965000Y-97602500D02*
X152965000Y-97152500D01*
X152965000Y-104372500D02*
X152965000Y-103922500D01*
X153415000Y-104372500D02*
X152965000Y-104372500D01*
X159735000Y-97152500D02*
X160185000Y-97152500D01*
X160185000Y-97152500D02*
X160185000Y-97602500D01*
X160185000Y-103922500D02*
X160185000Y-104372500D01*
X160185000Y-104372500D02*
X159735000Y-104372500D01*
X152325000Y-97602500D02*
X151985000Y-97132500D01*
X152665000Y-97132500D01*
X152325000Y-97602500D01*
G36*
X152325000Y-97602500D02*
G01*
X151985000Y-97132500D01*
X152665000Y-97132500D01*
X152325000Y-97602500D01*
G37*
%TO.C,Y1*%
X144940000Y-98240000D02*
X144940000Y-102360000D01*
X148360000Y-98240000D02*
X144940000Y-98240000D01*
%TO.C,R1*%
X174893641Y-108620000D02*
X174586359Y-108620000D01*
X174893641Y-109380000D02*
X174586359Y-109380000D01*
%TO.C,J4*%
X150500000Y-119630000D02*
X150500000Y-118250000D01*
X151880000Y-119630000D02*
X150500000Y-119630000D01*
X153150000Y-116870000D02*
X160880000Y-116870000D01*
X153150000Y-119630000D02*
X153150000Y-116870000D01*
X153150000Y-119630000D02*
X160880000Y-119630000D01*
X160880000Y-119630000D02*
X160880000Y-116870000D01*
%TO.C,FB1*%
X150825279Y-106290000D02*
X150499721Y-106290000D01*
X150825279Y-107310000D02*
X150499721Y-107310000D01*
%TO.C,C10*%
X171765000Y-109988748D02*
X171765000Y-110511252D01*
X173235000Y-109988748D02*
X173235000Y-110511252D01*
%TO.C,C3*%
X143890000Y-104912164D02*
X143890000Y-105127836D01*
X144610000Y-104912164D02*
X144610000Y-105127836D01*
%TO.C,C5*%
X166490000Y-97634420D02*
X166490000Y-97915580D01*
X167510000Y-97634420D02*
X167510000Y-97915580D01*
%TD*%
M02*
